<svg width="14" height="14" viewBox="0 0 14 14" fill="none" xmlns="http://www.w3.org/2000/svg">
<path fill-rule="evenodd" clip-rule="evenodd" d="M13.8605 12.4733L12.9106 11.65C12.725 11.4892 12.4244 11.4892 12.2388 11.65C12.0532 11.8108 12.0532 12.0716 12.2388 12.2323L12.3779 12.3529H3.26913L3.40835 12.2323C3.59392 12.0716 3.59392 11.8108 3.40835 11.65C3.22278 11.4892 2.9221 11.4892 2.7365 11.65L1.78659 12.4733C1.69339 12.5539 1.64706 12.6639 1.64706 12.7647C1.64706 12.8676 1.69584 12.9776 1.78659 13.0561L2.7365 13.8794C2.9221 14.0402 3.22272 14.0402 3.40835 13.8794C3.59392 13.7187 3.59392 13.4578 3.40835 13.2971L3.26913 13.1765H12.3779L12.2388 13.2971C12.0532 13.4578 12.0532 13.7186 12.2388 13.8794C12.4244 14.0402 12.725 14.0402 12.9106 13.8794L13.8605 13.0561C13.9536 12.9757 14 12.8657 14 12.7647C14 12.659 13.9513 12.5518 13.8605 12.4733Z" fill="black"/>
<path fill-rule="evenodd" clip-rule="evenodd" d="M1.7677 9.79672L1.64705 9.93368V1.59571L1.7677 1.73269C1.92854 1.91526 2.18908 1.91526 2.34995 1.73269C2.5108 1.5501 2.5108 1.25435 2.34995 1.07174L1.52642 0.136922C1.3656 -0.0456405 1.10501 -0.0456405 0.944166 0.136922L0.120661 1.07174C-0.0401875 1.25433 -0.0401875 1.55008 0.120661 1.73269C0.281485 1.91526 0.542069 1.91526 0.702918 1.73269L0.823542 1.59571V9.93368L0.702893 9.7967C0.542069 9.61416 0.281485 9.61416 0.120637 9.7967C-0.0402122 9.97929 -0.0402122 10.275 0.120637 10.4577L0.944141 11.3925C1.10499 11.5751 1.36552 11.5751 1.5264 11.3925L2.3499 10.4577C2.51075 10.2751 2.51075 9.97931 2.34993 9.79672C2.1891 9.61416 1.92852 9.61416 1.7677 9.79672Z" fill="black"/>
<mask id="mask0_0_1027" style="mask-type:alpha" maskUnits="userSpaceOnUse" x="4" y="0" width="10" height="11">
<path fill-rule="evenodd" clip-rule="evenodd" d="M4.13281 0H13.9965V10.6899H4.13281V0Z" fill="white"/>
</mask>
<g mask="url(#mask0_0_1027)">
<path fill-rule="evenodd" clip-rule="evenodd" d="M11.7548 3.77291H13.9965V0.471624C13.9965 0.211095 13.7957 0 13.5482 0H7.42074V3.77291H9.66247C9.90999 3.77291 10.1108 3.984 10.1108 4.24453C10.1108 4.50506 9.90999 4.71615 9.66247 4.71615H7.42074V6.131C7.42074 6.39152 7.21989 6.60262 6.97238 6.60262C6.72486 6.60262 6.52402 6.39152 6.52402 6.131V0H4.58117C4.33366 0 4.13281 0.211095 4.13281 0.471624V10.2183C4.13281 10.4788 4.33366 10.6899 4.58117 10.6899H6.52402V8.33186C6.52402 8.07133 6.72486 7.86024 6.97238 7.86024C7.21989 7.86024 7.42074 8.07133 7.42074 8.33186V10.6899H13.5482C13.7957 10.6899 13.9965 10.4788 13.9965 10.2183V4.71615H11.7548C11.5073 4.71615 11.3064 4.50506 11.3064 4.24453C11.3064 3.984 11.5072 3.77291 11.7548 3.77291Z" fill="black"/>
</g>
</svg>
