<svg width="93" height="41" viewBox="0 0 93 41" fill="none" xmlns="http://www.w3.org/2000/svg">
<g clip-path="url(#clip0_0_599)">
<path fill-rule="evenodd" clip-rule="evenodd" d="M37.6232 36.9908L35.0575 34.8289C34.5562 34.4066 33.7441 34.4066 33.2428 34.8289C32.7415 35.251 32.7415 35.9359 33.2428 36.358L33.6187 36.6748H9.01544L9.39146 36.358C9.89269 35.9359 9.89269 35.2511 9.39146 34.8289C8.89023 34.4066 8.07807 34.4066 7.57676 34.8289L5.01102 36.9908C4.75929 37.2026 4.63416 37.4914 4.63416 37.7561C4.63416 38.0264 4.7659 38.3152 5.01102 38.5213L7.57676 40.6833C8.07807 41.1056 8.89007 41.1056 9.39146 40.6833C9.89269 40.2612 9.89269 39.5762 9.39146 39.1541L9.01544 38.8374H33.6187L33.2428 39.1541C32.7415 39.5762 32.7415 40.2611 33.2428 40.6833C33.7441 41.1056 34.5561 41.1056 35.0575 40.6833L37.6232 38.5213C37.8746 38.3101 38 38.0213 38 37.7561C38 37.4786 37.8684 37.197 37.6232 36.9908Z" fill="#9B9B9B"/>
<path fill-rule="evenodd" clip-rule="evenodd" d="M4.642 29.7764L4.32517 30.1507V7.3614L4.642 7.7358C5.06439 8.23478 5.74856 8.23478 6.17101 7.7358C6.5934 7.23675 6.5934 6.4284 6.17101 5.92927L4.00841 3.37423C3.58608 2.87526 2.90179 2.87526 2.4794 3.37423L0.316858 5.92927C-0.105533 6.42833 -0.105533 7.23667 0.316858 7.7358C0.739185 8.23478 1.42348 8.23478 1.84587 7.7358L2.16263 7.3614V30.1507L1.84581 29.7763C1.42348 29.2774 0.739185 29.2774 0.316793 29.7763C-0.105598 30.2754 -0.105598 31.0837 0.316793 31.5829L2.47933 34.1379C2.90172 34.637 3.58589 34.637 4.00835 34.1379L6.17088 31.5829C6.59327 31.084 6.59327 30.2755 6.17095 29.7764C5.74862 29.2774 5.06432 29.2774 4.642 29.7764Z" fill="#9B9B9B"/>
<mask id="mask0_0_599" style="mask-type:alpha" maskUnits="userSpaceOnUse" x="11" y="3" width="27" height="29">
<path fill-rule="evenodd" clip-rule="evenodd" d="M11.1632 3H37.9906V31.6888H11.1632V3Z" fill="white"/>
</mask>
<g mask="url(#mask0_0_599)">
<path fill-rule="evenodd" clip-rule="evenodd" d="M31.8935 13.1255H37.9906V4.26571C37.9906 3.56652 37.4443 3 36.7711 3H20.1057V13.1255H26.2028C26.876 13.1255 27.4222 13.692 27.4222 14.3912C27.4222 15.0904 26.876 15.6569 26.2028 15.6569H20.1057V19.4539C20.1057 20.1531 19.5595 20.7197 18.8863 20.7197C18.2131 20.7197 17.6668 20.1531 17.6668 19.4539V3H12.3827C11.7095 3 11.1632 3.56652 11.1632 4.26571V30.4232C11.1632 31.1224 11.7095 31.6889 12.3827 31.6889H17.6668V25.3605C17.6668 24.6613 18.2131 24.0948 18.8863 24.0948C19.5595 24.0948 20.1057 24.6613 20.1057 25.3605V31.6889H36.7711C37.4443 31.6889 37.9906 31.1224 37.9906 30.4232V15.6569H31.8935C31.2203 15.6569 30.674 15.0904 30.674 14.3912C30.674 13.692 31.2202 13.1255 31.8935 13.1255Z" fill="#9B9B9B"/>
</g>
<path d="M53.986 17C53.854 17 53.746 16.958 53.662 16.874C53.59 16.79 53.554 16.688 53.554 16.568V7.244L50.818 9.35C50.71 9.422 50.602 9.452 50.494 9.44C50.386 9.416 50.29 9.35 50.206 9.242L49.45 8.27C49.378 8.162 49.348 8.048 49.36 7.928C49.384 7.808 49.45 7.712 49.558 7.64L53.59 4.526C53.662 4.466 53.734 4.43 53.806 4.418C53.878 4.406 53.956 4.4 54.04 4.4H55.624C55.744 4.4 55.846 4.442 55.93 4.526C56.014 4.61 56.056 4.712 56.056 4.832V16.568C56.056 16.688 56.014 16.79 55.93 16.874C55.846 16.958 55.744 17 55.624 17H53.986ZM63.074 17.18C62.042 17.18 61.154 16.988 60.41 16.604C59.666 16.208 59.09 15.68 58.682 15.02C58.274 14.348 58.07 13.598 58.07 12.77C58.07 12.398 58.118 12.038 58.214 11.69C58.31 11.342 58.436 11.012 58.592 10.7C58.748 10.388 58.898 10.112 59.042 9.872C59.198 9.62 59.336 9.422 59.456 9.278L62.75 4.76C62.798 4.7 62.87 4.628 62.966 4.544C63.062 4.448 63.194 4.4 63.362 4.4H65.036C65.144 4.4 65.234 4.442 65.306 4.526C65.378 4.598 65.414 4.688 65.414 4.796C65.414 4.844 65.402 4.892 65.378 4.94C65.366 4.976 65.348 5.006 65.324 5.03L62.804 8.522C62.912 8.486 63.038 8.462 63.182 8.45C63.326 8.438 63.458 8.432 63.578 8.432C64.178 8.444 64.748 8.564 65.288 8.792C65.828 9.008 66.302 9.308 66.71 9.692C67.118 10.076 67.436 10.526 67.664 11.042C67.904 11.558 68.024 12.122 68.024 12.734C68.024 13.526 67.826 14.264 67.43 14.948C67.034 15.62 66.464 16.16 65.72 16.568C64.988 16.976 64.106 17.18 63.074 17.18ZM63.056 15.11C63.488 15.11 63.884 15.02 64.244 14.84C64.616 14.66 64.916 14.396 65.144 14.048C65.372 13.7 65.486 13.268 65.486 12.752C65.486 12.248 65.372 11.822 65.144 11.474C64.916 11.126 64.616 10.862 64.244 10.682C63.884 10.502 63.488 10.412 63.056 10.412C62.624 10.412 62.222 10.502 61.85 10.682C61.49 10.862 61.196 11.126 60.968 11.474C60.74 11.822 60.626 12.248 60.626 12.752C60.626 13.268 60.74 13.7 60.968 14.048C61.196 14.396 61.49 14.66 61.85 14.84C62.222 15.02 62.624 15.11 63.056 15.11ZM74.5212 17.18C73.6692 17.18 72.9432 17.054 72.3432 16.802C71.7432 16.55 71.2512 16.202 70.8672 15.758C70.4832 15.314 70.1952 14.804 70.0032 14.228C69.8112 13.64 69.6972 13.016 69.6612 12.356C69.6492 12.032 69.6372 11.678 69.6252 11.294C69.6252 10.898 69.6252 10.502 69.6252 10.106C69.6372 9.71 69.6492 9.344 69.6612 9.008C69.6852 8.348 69.7992 7.73 70.0032 7.154C70.2072 6.566 70.5012 6.056 70.8852 5.624C71.2812 5.192 71.7792 4.85 72.3792 4.598C72.9792 4.346 73.6932 4.22 74.5212 4.22C75.3612 4.22 76.0812 4.346 76.6812 4.598C77.2812 4.85 77.7732 5.192 78.1572 5.624C78.5532 6.056 78.8472 6.566 79.0392 7.154C79.2432 7.73 79.3572 8.348 79.3812 9.008C79.4052 9.344 79.4172 9.71 79.4172 10.106C79.4172 10.502 79.4172 10.898 79.4172 11.294C79.4172 11.678 79.4052 12.032 79.3812 12.356C79.3572 13.016 79.2492 13.64 79.0572 14.228C78.8652 14.804 78.5772 15.314 78.1932 15.758C77.8092 16.202 77.3112 16.55 76.6992 16.802C76.0992 17.054 75.3732 17.18 74.5212 17.18ZM74.5212 15.11C75.3012 15.11 75.8712 14.858 76.2312 14.354C76.6032 13.838 76.7952 13.142 76.8072 12.266C76.8312 11.918 76.8432 11.57 76.8432 11.222C76.8432 10.862 76.8432 10.502 76.8432 10.142C76.8432 9.782 76.8312 9.44 76.8072 9.116C76.7952 8.264 76.6032 7.58 76.2312 7.064C75.8712 6.536 75.3012 6.272 74.5212 6.272C73.7532 6.272 73.1832 6.536 72.8112 7.064C72.4512 7.58 72.2592 8.264 72.2352 9.116C72.2352 9.44 72.2292 9.782 72.2172 10.142C72.2172 10.502 72.2172 10.862 72.2172 11.222C72.2292 11.57 72.2352 11.918 72.2352 12.266C72.2592 13.142 72.4572 13.838 72.8292 14.354C73.2012 14.858 73.7652 15.11 74.5212 15.11ZM86.3513 17.18C85.4993 17.18 84.7733 17.054 84.1733 16.802C83.5733 16.55 83.0813 16.202 82.6973 15.758C82.3133 15.314 82.0253 14.804 81.8333 14.228C81.6413 13.64 81.5273 13.016 81.4913 12.356C81.4793 12.032 81.4673 11.678 81.4553 11.294C81.4553 10.898 81.4553 10.502 81.4553 10.106C81.4673 9.71 81.4793 9.344 81.4913 9.008C81.5153 8.348 81.6293 7.73 81.8333 7.154C82.0373 6.566 82.3313 6.056 82.7153 5.624C83.1113 5.192 83.6093 4.85 84.2093 4.598C84.8093 4.346 85.5233 4.22 86.3513 4.22C87.1913 4.22 87.9113 4.346 88.5113 4.598C89.1113 4.85 89.6033 5.192 89.9873 5.624C90.3833 6.056 90.6773 6.566 90.8693 7.154C91.0733 7.73 91.1873 8.348 91.2113 9.008C91.2353 9.344 91.2473 9.71 91.2473 10.106C91.2473 10.502 91.2473 10.898 91.2473 11.294C91.2473 11.678 91.2353 12.032 91.2113 12.356C91.1873 13.016 91.0793 13.64 90.8873 14.228C90.6953 14.804 90.4073 15.314 90.0233 15.758C89.6393 16.202 89.1413 16.55 88.5293 16.802C87.9293 17.054 87.2033 17.18 86.3513 17.18ZM86.3513 15.11C87.1313 15.11 87.7013 14.858 88.0613 14.354C88.4333 13.838 88.6253 13.142 88.6373 12.266C88.6613 11.918 88.6733 11.57 88.6733 11.222C88.6733 10.862 88.6733 10.502 88.6733 10.142C88.6733 9.782 88.6613 9.44 88.6373 9.116C88.6253 8.264 88.4333 7.58 88.0613 7.064C87.7013 6.536 87.1313 6.272 86.3513 6.272C85.5833 6.272 85.0133 6.536 84.6413 7.064C84.2813 7.58 84.0893 8.264 84.0653 9.116C84.0653 9.44 84.0593 9.782 84.0473 10.142C84.0473 10.502 84.0473 10.862 84.0473 11.222C84.0593 11.57 84.0653 11.918 84.0653 12.266C84.0893 13.142 84.2873 13.838 84.6593 14.354C85.0313 14.858 85.5953 15.11 86.3513 15.11ZM53.992 36.16C53.064 36.16 52.2853 36.0213 51.656 35.744C51.0267 35.456 50.5413 35.088 50.2 34.64C49.8693 34.1813 49.6933 33.696 49.672 33.184C49.672 33.0987 49.704 33.024 49.768 32.96C49.8427 32.8853 49.928 32.848 50.024 32.848H50.84C50.968 32.848 51.064 32.88 51.128 32.944C51.192 33.008 51.2347 33.0827 51.256 33.168C51.3093 33.424 51.4373 33.68 51.64 33.936C51.8533 34.1813 52.1467 34.3893 52.52 34.56C52.904 34.72 53.3947 34.8 53.992 34.8C54.9093 34.8 55.5813 34.64 56.008 34.32C56.4453 33.9893 56.664 33.552 56.664 33.008C56.664 32.6347 56.5467 32.336 56.312 32.112C56.088 31.8773 55.7413 31.6693 55.272 31.488C54.8027 31.3067 54.1947 31.1093 53.448 30.896C52.6693 30.672 52.024 30.4267 51.512 30.16C51 29.8933 50.616 29.5627 50.36 29.168C50.1147 28.7733 49.992 28.272 49.992 27.664C49.992 27.088 50.1467 26.576 50.456 26.128C50.7653 25.6693 51.208 25.3067 51.784 25.04C52.3707 24.7733 53.08 24.64 53.912 24.64C54.5733 24.64 55.1493 24.7307 55.64 24.912C56.1413 25.0827 56.5573 25.3173 56.888 25.616C57.2187 25.904 57.4693 26.2187 57.64 26.56C57.8107 26.8907 57.9013 27.216 57.912 27.536C57.912 27.6107 57.8853 27.6853 57.832 27.76C57.7787 27.824 57.6933 27.856 57.576 27.856H56.728C56.6533 27.856 56.5733 27.8347 56.488 27.792C56.4133 27.7493 56.3547 27.6693 56.312 27.552C56.248 27.1147 56.0027 26.7467 55.576 26.448C55.1493 26.1493 54.5947 26 53.912 26C53.2187 26 52.6533 26.1333 52.216 26.4C51.7893 26.6667 51.576 27.0827 51.576 27.648C51.576 28.0107 51.6773 28.3147 51.88 28.56C52.0827 28.7947 52.4027 29.0027 52.84 29.184C53.2773 29.3653 53.848 29.5573 54.552 29.76C55.4053 29.9947 56.104 30.2453 56.648 30.512C57.192 30.768 57.592 31.0933 57.848 31.488C58.1147 31.872 58.248 32.368 58.248 32.976C58.248 33.648 58.072 34.224 57.72 34.704C57.368 35.1733 56.872 35.536 56.232 35.792C55.6027 36.0373 54.856 36.16 53.992 36.16ZM66.1531 39.04C66.0358 39.04 65.9451 39.0027 65.8811 38.928C65.8171 38.864 65.7851 38.7787 65.7851 38.672V34.96C65.5185 35.3013 65.1718 35.5893 64.7451 35.824C64.3291 36.048 63.8118 36.16 63.1931 36.16C62.6065 36.16 62.0998 36.0587 61.6731 35.856C61.2465 35.6427 60.8945 35.3653 60.6171 35.024C60.3505 34.672 60.1478 34.272 60.0091 33.824C59.8811 33.3653 59.8065 32.8853 59.7851 32.384C59.7745 32.2133 59.7691 32.032 59.7691 31.84C59.7691 31.648 59.7745 31.4667 59.7851 31.296C59.8065 30.784 59.8811 30.304 60.0091 29.856C60.1478 29.408 60.3505 29.008 60.6171 28.656C60.8945 28.304 61.2465 28.0267 61.6731 27.824C62.0998 27.6213 62.6065 27.52 63.1931 27.52C63.8331 27.52 64.3665 27.6373 64.7931 27.872C65.2198 28.1067 65.5611 28.4 65.8171 28.752V28.048C65.8171 27.9413 65.8491 27.856 65.9131 27.792C65.9878 27.7173 66.0785 27.68 66.1851 27.68H66.9211C67.0278 27.68 67.1131 27.7173 67.1771 27.792C67.2518 27.856 67.2891 27.9413 67.2891 28.048V38.672C67.2891 38.7787 67.2518 38.864 67.1771 38.928C67.1131 39.0027 67.0278 39.04 66.9211 39.04H66.1531ZM63.5291 34.864C64.0411 34.864 64.4571 34.7467 64.7771 34.512C65.1078 34.2773 65.3531 33.9787 65.5131 33.616C65.6838 33.2533 65.7745 32.8853 65.7851 32.512C65.7958 32.3307 65.8011 32.1227 65.8011 31.888C65.8011 31.6533 65.7958 31.4507 65.7851 31.28C65.7745 30.8853 65.6891 30.5013 65.5291 30.128C65.3691 29.744 65.1238 29.4293 64.7931 29.184C64.4731 28.9387 64.0518 28.816 63.5291 28.816C62.9851 28.816 62.5531 28.9387 62.2331 29.184C61.9131 29.4187 61.6838 29.7333 61.5451 30.128C61.4065 30.512 61.3265 30.928 61.3051 31.376C61.2945 31.6853 61.2945 31.9947 61.3051 32.304C61.3265 32.752 61.4065 33.1733 61.5451 33.568C61.6838 33.952 61.9131 34.2667 62.2331 34.512C62.5531 34.7467 62.9851 34.864 63.5291 34.864ZM74.1663 36C74.0489 36 73.9583 35.968 73.8943 35.904C73.8303 35.8293 73.7983 35.7387 73.7983 35.632V25.184C73.7983 25.0667 73.8303 24.976 73.8943 24.912C73.9583 24.8373 74.0489 24.8 74.1663 24.8H80.6943C80.8116 24.8 80.9023 24.8373 80.9663 24.912C81.0303 24.976 81.0623 25.0667 81.0623 25.184V25.824C81.0623 25.9413 81.0303 26.032 80.9663 26.096C80.9023 26.16 80.8116 26.192 80.6943 26.192H75.3503V29.92H80.3743C80.4916 29.92 80.5823 29.9573 80.6463 30.032C80.7103 30.096 80.7423 30.1867 80.7423 30.304V30.944C80.7423 31.0507 80.7103 31.1413 80.6463 31.216C80.5823 31.28 80.4916 31.312 80.3743 31.312H75.3503V35.632C75.3503 35.7387 75.3129 35.8293 75.2383 35.904C75.1743 35.968 75.0836 36 74.9663 36H74.1663ZM85.9945 36C85.3972 36 84.9118 35.888 84.5385 35.664C84.1652 35.4293 83.8932 35.104 83.7225 34.688C83.5518 34.2613 83.4665 33.76 83.4665 33.184V28.96H82.2185C82.1118 28.96 82.0212 28.928 81.9465 28.864C81.8825 28.7893 81.8505 28.6987 81.8505 28.592V28.048C81.8505 27.9413 81.8825 27.856 81.9465 27.792C82.0212 27.7173 82.1118 27.68 82.2185 27.68H83.4665V25.008C83.4665 24.9013 83.4985 24.816 83.5625 24.752C83.6372 24.6773 83.7278 24.64 83.8345 24.64H84.5865C84.6932 24.64 84.7785 24.6773 84.8425 24.752C84.9172 24.816 84.9545 24.9013 84.9545 25.008V27.68H86.9385C87.0452 27.68 87.1305 27.7173 87.1945 27.792C87.2692 27.856 87.3065 27.9413 87.3065 28.048V28.592C87.3065 28.6987 87.2692 28.7893 87.1945 28.864C87.1305 28.928 87.0452 28.96 86.9385 28.96H84.9545V33.072C84.9545 33.5733 85.0398 33.968 85.2105 34.256C85.3812 34.544 85.6852 34.688 86.1225 34.688H87.0985C87.2052 34.688 87.2905 34.7253 87.3545 34.8C87.4292 34.864 87.4665 34.9493 87.4665 35.056V35.632C87.4665 35.7387 87.4292 35.8293 87.3545 35.904C87.2905 35.968 87.2052 36 87.0985 36H85.9945Z" fill="#9B9B9B"/>
</g>
<defs>
<clipPath id="clip0_0_599">
<rect width="93" height="41" fill="white"/>
</clipPath>
</defs>
</svg>
