<svg width="14" height="14" viewBox="0 0 14 14" fill="none" xmlns="http://www.w3.org/2000/svg">
<path fill-rule="evenodd" clip-rule="evenodd" d="M13.2524 12.4338L13.032 11.9136C12.5612 12.3261 11.9904 12.6271 11.3611 12.7748L11.7655 13.301C11.9286 13.5132 12.1858 13.6399 12.4535 13.6399C12.7453 13.6399 13.0157 13.4947 13.1769 13.2514C13.338 13.0081 13.3663 12.7025 13.2524 12.4338Z" fill="black"/>
<path fill-rule="evenodd" clip-rule="evenodd" d="M0.968022 11.9136L0.747632 12.4338C0.633827 12.7026 0.662073 13.0082 0.82321 13.2514C0.984347 13.4946 1.25478 13.6399 1.54659 13.6399C1.81428 13.6399 2.07145 13.5132 2.23464 13.3009L2.63894 12.7747C2.00963 12.6271 1.4388 12.3261 0.968022 11.9136Z" fill="black"/>
<path fill-rule="evenodd" clip-rule="evenodd" d="M5.0069 1.46779H4.96209C4.85137 0.640391 4.14136 0 3.28417 0H2.90644C1.9727 0 1.21301 0.759664 1.21301 1.69343V5.24038H2.03532V1.6934C2.03532 1.21308 2.42612 0.822281 2.90644 0.822281H3.28417C3.68647 0.822281 4.02578 1.09648 4.12548 1.46776H4.05906C3.40494 1.46776 2.87278 1.99992 2.87278 2.65404V3.34764C2.87278 3.56754 3.04556 3.74659 3.2627 3.75771C3.26978 3.75807 3.27675 3.75878 3.28392 3.75878H5.78202C6.00908 3.75878 6.19316 3.5747 6.19316 3.34764V2.65407C6.19318 1.99995 5.66102 1.46779 5.0069 1.46779Z" fill="black"/>
<path fill-rule="evenodd" clip-rule="evenodd" d="M0.461609 8.46753V8.9893C0.461609 10.6797 1.83684 12.055 3.52725 12.055H10.4728C12.1632 12.055 13.5385 10.6797 13.5385 8.9893V8.46753H0.461609Z" fill="black"/>
<mask id="mask0_0_1046" style="mask-type:alpha" maskUnits="userSpaceOnUse" x="0" y="6" width="14" height="2">
<path fill-rule="evenodd" clip-rule="evenodd" d="M0 6.4563H14V7.63924H0V6.4563Z" fill="white"/>
</mask>
<g mask="url(#mask0_0_1046)">
<path fill-rule="evenodd" clip-rule="evenodd" d="M13.4086 6.4563H0.591445C0.265316 6.45633 0 6.72167 0 7.0478C0 7.37393 0.265316 7.63924 0.591445 7.63924H13.4086C13.7347 7.63924 14 7.37393 14 7.0478C14 6.72167 13.7347 6.4563 13.4086 6.4563Z" fill="black"/>
</g>
</svg>
