<svg width="87" height="41" viewBox="0 0 87 41" fill="none" xmlns="http://www.w3.org/2000/svg">
<path d="M55.986 17C55.854 17 55.746 16.958 55.662 16.874C55.59 16.79 55.554 16.688 55.554 16.568V7.244L52.818 9.35C52.71 9.422 52.602 9.452 52.494 9.44C52.386 9.416 52.29 9.35 52.206 9.242L51.45 8.27C51.378 8.162 51.348 8.048 51.36 7.928C51.384 7.808 51.45 7.712 51.558 7.64L55.59 4.526C55.662 4.466 55.734 4.43 55.806 4.418C55.878 4.406 55.956 4.4 56.04 4.4H57.624C57.744 4.4 57.846 4.442 57.93 4.526C58.014 4.61 58.056 4.712 58.056 4.832V16.568C58.056 16.688 58.014 16.79 57.93 16.874C57.846 16.958 57.744 17 57.624 17H55.986ZM52.76 36C52.6427 36 52.552 35.968 52.488 35.904C52.424 35.8293 52.392 35.7387 52.392 35.632V25.184C52.392 25.0667 52.424 24.976 52.488 24.912C52.552 24.8373 52.6427 24.8 52.76 24.8H57.144C57.944 24.8 58.5947 24.9333 59.096 25.2C59.608 25.456 59.9813 25.808 60.216 26.256C60.4613 26.704 60.584 27.2053 60.584 27.76C60.584 28.1973 60.5093 28.576 60.36 28.896C60.2213 29.2053 60.0453 29.4613 59.832 29.664C59.6187 29.856 59.4107 30.0053 59.208 30.112C59.624 30.3147 59.992 30.6453 60.312 31.104C60.6427 31.5627 60.808 32.1173 60.808 32.768C60.808 33.3547 60.6747 33.8933 60.408 34.384C60.1413 34.8747 59.7413 35.2693 59.208 35.568C58.6853 35.856 58.0347 36 57.256 36H52.76ZM53.96 34.704H57.048C57.7413 34.704 58.2747 34.5173 58.648 34.144C59.0213 33.7707 59.208 33.312 59.208 32.768C59.208 32.2027 59.0213 31.7387 58.648 31.376C58.2747 31.0027 57.7413 30.816 57.048 30.816H53.96V34.704ZM53.96 29.536H56.904C57.5867 29.536 58.104 29.3813 58.456 29.072C58.808 28.752 58.984 28.32 58.984 27.776C58.984 27.232 58.808 26.816 58.456 26.528C58.104 26.24 57.5867 26.096 56.904 26.096H53.96V29.536ZM65.1915 36.16C64.6582 36.16 64.1728 36.0533 63.7355 35.84C63.2982 35.6267 62.9462 35.3387 62.6795 34.976C62.4128 34.6133 62.2795 34.2027 62.2795 33.744C62.2795 33.008 62.5782 32.4213 63.1755 31.984C63.7728 31.5467 64.5515 31.2587 65.5115 31.12L67.8955 30.784V30.32C67.8955 29.808 67.7462 29.408 67.4475 29.12C67.1595 28.832 66.6848 28.688 66.0235 28.688C65.5435 28.688 65.1542 28.784 64.8555 28.976C64.5675 29.168 64.3648 29.4133 64.2475 29.712C64.1835 29.872 64.0715 29.952 63.9115 29.952H63.1915C63.0742 29.952 62.9835 29.92 62.9195 29.856C62.8662 29.7813 62.8395 29.696 62.8395 29.6C62.8395 29.44 62.8982 29.2427 63.0155 29.008C63.1435 28.7733 63.3355 28.544 63.5915 28.32C63.8475 28.096 64.1728 27.9093 64.5675 27.76C64.9728 27.6 65.4635 27.52 66.0395 27.52C66.6795 27.52 67.2182 27.6053 67.6555 27.776C68.0928 27.936 68.4342 28.1547 68.6795 28.432C68.9355 28.7093 69.1168 29.024 69.2235 29.376C69.3408 29.728 69.3995 30.0853 69.3995 30.448V35.632C69.3995 35.7387 69.3622 35.8293 69.2875 35.904C69.2235 35.968 69.1382 36 69.0315 36H68.2955C68.1782 36 68.0875 35.968 68.0235 35.904C67.9595 35.8293 67.9275 35.7387 67.9275 35.632V34.944C67.7888 35.136 67.6022 35.328 67.3675 35.52C67.1328 35.7013 66.8395 35.856 66.4875 35.984C66.1355 36.1013 65.7035 36.16 65.1915 36.16ZM65.5275 34.96C65.9648 34.96 66.3648 34.8693 66.7275 34.688C67.0902 34.496 67.3728 34.2027 67.5755 33.808C67.7888 33.4133 67.8955 32.9173 67.8955 32.32V31.872L66.0395 32.144C65.2822 32.2507 64.7115 32.432 64.3275 32.688C63.9435 32.9333 63.7515 33.248 63.7515 33.632C63.7515 33.9307 63.8368 34.1813 64.0075 34.384C64.1888 34.576 64.4128 34.72 64.6795 34.816C64.9568 34.912 65.2395 34.96 65.5275 34.96ZM74.8695 36C74.2722 36 73.7868 35.888 73.4135 35.664C73.0402 35.4293 72.7682 35.104 72.5975 34.688C72.4268 34.2613 72.3415 33.76 72.3415 33.184V28.96H71.0935C70.9868 28.96 70.8962 28.928 70.8215 28.864C70.7575 28.7893 70.7255 28.6987 70.7255 28.592V28.048C70.7255 27.9413 70.7575 27.856 70.8215 27.792C70.8962 27.7173 70.9868 27.68 71.0935 27.68H72.3415V25.008C72.3415 24.9013 72.3735 24.816 72.4375 24.752C72.5122 24.6773 72.6028 24.64 72.7095 24.64H73.4615C73.5682 24.64 73.6535 24.6773 73.7175 24.752C73.7922 24.816 73.8295 24.9013 73.8295 25.008V27.68H75.8135C75.9202 27.68 76.0055 27.7173 76.0695 27.792C76.1442 27.856 76.1815 27.9413 76.1815 28.048V28.592C76.1815 28.6987 76.1442 28.7893 76.0695 28.864C76.0055 28.928 75.9202 28.96 75.8135 28.96H73.8295V33.072C73.8295 33.5733 73.9148 33.968 74.0855 34.256C74.2562 34.544 74.5602 34.688 74.9975 34.688H75.9735C76.0802 34.688 76.1655 34.7253 76.2295 34.8C76.3042 34.864 76.3415 34.9493 76.3415 35.056V35.632C76.3415 35.7387 76.3042 35.8293 76.2295 35.904C76.1655 35.968 76.0802 36 75.9735 36H74.8695ZM78.2555 36C78.1488 36 78.0582 35.968 77.9835 35.904C77.9195 35.8293 77.8875 35.7387 77.8875 35.632V25.008C77.8875 24.9013 77.9195 24.816 77.9835 24.752C78.0582 24.6773 78.1488 24.64 78.2555 24.64H79.0555C79.1728 24.64 79.2635 24.6773 79.3275 24.752C79.3915 24.816 79.4235 24.9013 79.4235 25.008V28.736C79.7115 28.3733 80.0635 28.08 80.4795 27.856C80.8955 27.632 81.4235 27.52 82.0635 27.52C82.7568 27.52 83.3435 27.6747 83.8235 27.984C84.3142 28.2827 84.6822 28.704 84.9275 29.248C85.1835 29.7813 85.3115 30.4053 85.3115 31.12V35.632C85.3115 35.7387 85.2795 35.8293 85.2155 35.904C85.1515 35.968 85.0608 36 84.9435 36H84.1435C84.0368 36 83.9462 35.968 83.8715 35.904C83.8075 35.8293 83.7755 35.7387 83.7755 35.632V31.2C83.7755 30.4533 83.5942 29.872 83.2315 29.456C82.8688 29.0293 82.3355 28.816 81.6315 28.816C80.9702 28.816 80.4368 29.0293 80.0315 29.456C79.6262 29.872 79.4235 30.4533 79.4235 31.2V35.632C79.4235 35.7387 79.3915 35.8293 79.3275 35.904C79.2635 35.968 79.1728 36 79.0555 36H78.2555Z" fill="#9B9B9B"/>
<path fill-rule="evenodd" clip-rule="evenodd" d="M36.908 36.6284L36.2941 35.1794C34.983 36.3284 33.3933 37.1666 31.6408 37.5779L32.7668 39.0434C33.2211 39.6345 33.9374 39.9873 34.683 39.9873C35.4957 39.9873 36.2488 39.5829 36.6975 38.9053C37.1463 38.2277 37.225 37.3766 36.908 36.6284Z" fill="#9B9B9B"/>
<path fill-rule="evenodd" clip-rule="evenodd" d="M2.69586 35.1794L2.08207 36.6284C1.76512 37.3767 1.84379 38.2279 2.29255 38.9053C2.74132 39.5827 3.49446 39.9873 4.30716 39.9873C5.05269 39.9873 5.76891 39.6344 6.22338 39.0432L7.34937 37.5778C5.59673 37.1666 4.00697 36.3284 2.69586 35.1794Z" fill="#9B9B9B"/>
<path fill-rule="evenodd" clip-rule="evenodd" d="M13.9442 6.08778H13.8193C13.511 3.78349 11.5336 2 9.14633 2H8.09436C5.49391 2 3.37817 4.11566 3.37817 6.71619V16.5944H5.6683V6.71611C5.6683 5.37842 6.75667 4.29005 8.09436 4.29005H9.14633C10.2668 4.29005 11.2117 5.05371 11.4894 6.0877H11.3044C9.4827 6.0877 8.00062 7.56978 8.00062 9.3915V11.3232C8.00062 11.9356 8.48183 12.4342 9.08655 12.4652C9.10627 12.4662 9.12569 12.4682 9.14564 12.4682H16.1028C16.7352 12.4682 17.2479 11.9555 17.2479 11.3232V9.39157C17.2479 7.56986 15.7659 6.08778 13.9442 6.08778Z" fill="#9B9B9B"/>
<path fill-rule="evenodd" clip-rule="evenodd" d="M1.28552 25.582V27.0352C1.28552 31.743 5.11553 35.5731 9.82334 35.5731H29.1667C33.8744 35.5731 37.7045 31.7431 37.7045 27.0352V25.582H1.28552Z" fill="#9B9B9B"/>
<mask id="mask0_0_578" style="mask-type:alpha" maskUnits="userSpaceOnUse" x="0" y="19" width="39" height="5">
<path fill-rule="evenodd" clip-rule="evenodd" d="M0 19.9805H38.99V23.275H0V19.9805Z" fill="white"/>
</mask>
<g mask="url(#mask0_0_578)">
<path fill-rule="evenodd" clip-rule="evenodd" d="M37.3428 19.9805H1.64717C0.738906 19.9805 0 20.7195 0 21.6278C0 22.5361 0.738906 23.275 1.64717 23.275H37.3428C38.2511 23.275 38.99 22.5361 38.99 21.6278C38.99 20.7195 38.2511 19.9805 37.3428 19.9805Z" fill="#9B9B9B"/>
</g>
</svg>
