<svg width="113" height="41" viewBox="0 0 113 41" fill="none" xmlns="http://www.w3.org/2000/svg">
<g clip-path="url(#clip0_0_572)">
<path d="M76.242 17C76.122 17 76.02 16.958 75.936 16.874C75.852 16.79 75.81 16.688 75.81 16.568V15.65C75.81 15.542 75.834 15.416 75.882 15.272C75.942 15.116 76.068 14.96 76.26 14.804L79.104 11.978C79.896 11.354 80.532 10.826 81.012 10.394C81.504 9.95 81.858 9.548 82.074 9.188C82.302 8.816 82.416 8.45 82.416 8.09C82.416 7.55 82.266 7.112 81.966 6.776C81.678 6.44 81.216 6.272 80.58 6.272C80.16 6.272 79.806 6.362 79.518 6.542C79.23 6.71 79.002 6.938 78.834 7.226C78.678 7.514 78.57 7.832 78.51 8.18C78.486 8.336 78.42 8.444 78.312 8.504C78.204 8.564 78.096 8.594 77.988 8.594H76.386C76.278 8.594 76.188 8.558 76.116 8.486C76.044 8.414 76.008 8.33 76.008 8.234C76.02 7.718 76.128 7.22 76.332 6.74C76.536 6.248 76.83 5.816 77.214 5.444C77.61 5.06 78.09 4.754 78.654 4.526C79.218 4.298 79.854 4.184 80.562 4.184C81.558 4.184 82.38 4.352 83.028 4.688C83.688 5.024 84.18 5.48 84.504 6.056C84.84 6.632 85.008 7.28 85.008 8C85.008 8.564 84.9 9.086 84.684 9.566C84.468 10.034 84.156 10.49 83.748 10.934C83.34 11.366 82.848 11.81 82.272 12.266L79.716 14.858H84.846C84.978 14.858 85.08 14.9 85.152 14.984C85.236 15.056 85.278 15.158 85.278 15.29V16.568C85.278 16.688 85.236 16.79 85.152 16.874C85.08 16.958 84.978 17 84.846 17H76.242ZM76.76 36C76.6427 36 76.552 35.968 76.488 35.904C76.424 35.8293 76.392 35.7387 76.392 35.632V25.184C76.392 25.0667 76.424 24.976 76.488 24.912C76.552 24.8373 76.6427 24.8 76.76 24.8H81.144C81.944 24.8 82.5947 24.9333 83.096 25.2C83.608 25.456 83.9813 25.808 84.216 26.256C84.4613 26.704 84.584 27.2053 84.584 27.76C84.584 28.1973 84.5093 28.576 84.36 28.896C84.2213 29.2053 84.0453 29.4613 83.832 29.664C83.6187 29.856 83.4107 30.0053 83.208 30.112C83.624 30.3147 83.992 30.6453 84.312 31.104C84.6427 31.5627 84.808 32.1173 84.808 32.768C84.808 33.3547 84.6747 33.8933 84.408 34.384C84.1413 34.8747 83.7413 35.2693 83.208 35.568C82.6853 35.856 82.0347 36 81.256 36H76.76ZM77.96 34.704H81.048C81.7413 34.704 82.2747 34.5173 82.648 34.144C83.0213 33.7707 83.208 33.312 83.208 32.768C83.208 32.2027 83.0213 31.7387 82.648 31.376C82.2747 31.0027 81.7413 30.816 81.048 30.816H77.96V34.704ZM77.96 29.536H80.904C81.5867 29.536 82.104 29.3813 82.456 29.072C82.808 28.752 82.984 28.32 82.984 27.776C82.984 27.232 82.808 26.816 82.456 26.528C82.104 26.24 81.5867 26.096 80.904 26.096H77.96V29.536ZM90.1835 36.16C89.0848 36.16 88.2102 35.824 87.5595 35.152C86.9088 34.4693 86.5515 33.5413 86.4875 32.368C86.4768 32.2293 86.4715 32.0533 86.4715 31.84C86.4715 31.616 86.4768 31.4347 86.4875 31.296C86.5302 30.5387 86.7062 29.8773 87.0155 29.312C87.3248 28.736 87.7462 28.2933 88.2795 27.984C88.8235 27.6747 89.4582 27.52 90.1835 27.52C90.9942 27.52 91.6715 27.6907 92.2155 28.032C92.7702 28.3733 93.1915 28.8587 93.4795 29.488C93.7675 30.1173 93.9115 30.8533 93.9115 31.696V31.968C93.9115 32.0853 93.8742 32.176 93.7995 32.24C93.7355 32.304 93.6502 32.336 93.5435 32.336H88.0075C88.0075 32.3467 88.0075 32.368 88.0075 32.4C88.0075 32.432 88.0075 32.4587 88.0075 32.48C88.0288 32.9173 88.1248 33.328 88.2955 33.712C88.4662 34.0853 88.7115 34.3893 89.0315 34.624C89.3515 34.8587 89.7355 34.976 90.1835 34.976C90.5675 34.976 90.8875 34.9173 91.1435 34.8C91.3995 34.6827 91.6075 34.5547 91.7675 34.416C91.9275 34.2667 92.0342 34.1547 92.0875 34.08C92.1835 33.9413 92.2582 33.8613 92.3115 33.84C92.3648 33.808 92.4502 33.792 92.5675 33.792H93.3355C93.4422 33.792 93.5275 33.824 93.5915 33.888C93.6662 33.9413 93.6982 34.0213 93.6875 34.128C93.6768 34.288 93.5915 34.4853 93.4315 34.72C93.2715 34.944 93.0422 35.168 92.7435 35.392C92.4448 35.616 92.0822 35.8027 91.6555 35.952C91.2288 36.0907 90.7382 36.16 90.1835 36.16ZM88.0075 31.232H92.3915V31.184C92.3915 30.704 92.3008 30.2773 92.1195 29.904C91.9488 29.5307 91.6982 29.2373 91.3675 29.024C91.0368 28.8 90.6422 28.688 90.1835 28.688C89.7248 28.688 89.3302 28.8 88.9995 29.024C88.6795 29.2373 88.4342 29.5307 88.2635 29.904C88.0928 30.2773 88.0075 30.704 88.0075 31.184V31.232ZM98.8646 36.16C98.278 36.16 97.7713 36.0587 97.3446 35.856C96.918 35.6427 96.566 35.36 96.2886 35.008C96.022 34.6453 95.8193 34.2347 95.6806 33.776C95.5526 33.3173 95.478 32.832 95.4566 32.32C95.446 32.1493 95.4406 31.9893 95.4406 31.84C95.4406 31.6907 95.446 31.5307 95.4566 31.36C95.478 30.8587 95.5526 30.3787 95.6806 29.92C95.8193 29.4613 96.022 29.0507 96.2886 28.688C96.566 28.3253 96.918 28.0427 97.3446 27.84C97.7713 27.6267 98.278 27.52 98.8646 27.52C99.494 27.52 100.017 27.632 100.433 27.856C100.849 28.08 101.19 28.3573 101.457 28.688V25.008C101.457 24.9013 101.489 24.816 101.553 24.752C101.627 24.6773 101.718 24.64 101.825 24.64H102.593C102.699 24.64 102.785 24.6773 102.849 24.752C102.923 24.816 102.961 24.9013 102.961 25.008V35.632C102.961 35.7387 102.923 35.8293 102.849 35.904C102.785 35.968 102.699 36 102.593 36H101.873C101.755 36 101.665 35.968 101.601 35.904C101.537 35.8293 101.505 35.7387 101.505 35.632V34.96C101.238 35.3013 100.891 35.5893 100.465 35.824C100.038 36.048 99.5046 36.16 98.8646 36.16ZM99.2006 34.864C99.734 34.864 100.161 34.7413 100.481 34.496C100.801 34.2507 101.041 33.9413 101.201 33.568C101.361 33.184 101.446 32.7947 101.457 32.4C101.467 32.2293 101.473 32.0267 101.473 31.792C101.473 31.5467 101.467 31.3387 101.457 31.168C101.446 30.7947 101.355 30.4267 101.185 30.064C101.025 29.7013 100.779 29.4027 100.449 29.168C100.129 28.9333 99.7126 28.816 99.2006 28.816C98.6566 28.816 98.2246 28.9387 97.9046 29.184C97.5846 29.4187 97.3553 29.7333 97.2166 30.128C97.078 30.512 96.998 30.928 96.9766 31.376C96.966 31.6853 96.966 31.9947 96.9766 32.304C96.998 32.752 97.078 33.1733 97.2166 33.568C97.3553 33.952 97.5846 34.2667 97.9046 34.512C98.2246 34.7467 98.6566 34.864 99.2006 34.864ZM108.22 36.16C107.623 36.16 107.111 36.0853 106.684 35.936C106.258 35.7867 105.911 35.6053 105.644 35.392C105.378 35.1787 105.175 34.9653 105.036 34.752C104.908 34.5387 104.839 34.368 104.828 34.24C104.818 34.1227 104.855 34.032 104.94 33.968C105.026 33.904 105.111 33.872 105.196 33.872H105.9C105.964 33.872 106.012 33.8827 106.044 33.904C106.087 33.9147 106.14 33.9573 106.204 34.032C106.343 34.1813 106.498 34.3307 106.668 34.48C106.839 34.6293 107.047 34.752 107.292 34.848C107.548 34.944 107.863 34.992 108.236 34.992C108.78 34.992 109.228 34.8907 109.58 34.688C109.932 34.4747 110.108 34.1653 110.108 33.76C110.108 33.4933 110.034 33.28 109.884 33.12C109.746 32.96 109.49 32.816 109.116 32.688C108.754 32.56 108.252 32.4267 107.612 32.288C106.972 32.1387 106.466 31.9573 106.092 31.744C105.719 31.52 105.452 31.2587 105.292 30.96C105.132 30.6507 105.052 30.304 105.052 29.92C105.052 29.5253 105.17 29.1467 105.404 28.784C105.639 28.4107 105.98 28.1067 106.428 27.872C106.887 27.6373 107.458 27.52 108.14 27.52C108.695 27.52 109.17 27.5893 109.564 27.728C109.959 27.8667 110.284 28.0427 110.54 28.256C110.796 28.4587 110.988 28.6613 111.116 28.864C111.244 29.0667 111.314 29.2373 111.324 29.376C111.335 29.4827 111.303 29.5733 111.228 29.648C111.154 29.712 111.068 29.744 110.972 29.744H110.3C110.226 29.744 110.162 29.728 110.108 29.696C110.066 29.664 110.023 29.6267 109.98 29.584C109.874 29.4453 109.746 29.3067 109.596 29.168C109.458 29.0293 109.271 28.9173 109.036 28.832C108.812 28.736 108.514 28.688 108.14 28.688C107.607 28.688 107.207 28.8 106.94 29.024C106.674 29.248 106.54 29.5307 106.54 29.872C106.54 30.0747 106.599 30.256 106.716 30.416C106.834 30.576 107.058 30.72 107.388 30.848C107.719 30.976 108.21 31.1147 108.86 31.264C109.564 31.4027 110.119 31.5893 110.524 31.824C110.93 32.0587 111.218 32.3307 111.388 32.64C111.559 32.9493 111.644 33.3067 111.644 33.712C111.644 34.16 111.511 34.5707 111.244 34.944C110.988 35.3173 110.604 35.616 110.092 35.84C109.591 36.0533 108.967 36.16 108.22 36.16Z" fill="#9B9B9B"/>
<path fill-rule="evenodd" clip-rule="evenodd" d="M54.2238 21.6496H60.4014V16.0905C60.4014 14.936 59.46 13.9946 58.3056 13.9946H23.5078C23.6178 14.2214 23.7209 14.4482 23.824 14.6818C24.5248 16.3447 24.8821 18.1107 24.8821 19.9317C24.8821 20.5088 24.8477 21.0861 24.7721 21.6496H54.2238Z" fill="#9B9B9B"/>
<path fill-rule="evenodd" clip-rule="evenodd" d="M11.4 8.85474C11.1664 8.85474 10.9396 8.86161 10.7128 8.87535V21.6428H18.3472H22.3396C22.429 21.0793 22.4702 20.509 22.4702 19.9249C22.4702 17.7397 21.838 15.7058 20.7454 13.9947C18.787 10.9025 15.3306 8.85474 11.4 8.85474Z" fill="#9B9B9B"/>
<path fill-rule="evenodd" clip-rule="evenodd" d="M2.06148 41H6.24629C7.38698 41 8.30778 40.0792 8.30778 38.9385V32.3624H54.2239V38.9385C54.2239 40.0792 55.1447 41 56.2854 41H60.4702C61.6108 41 62.5316 40.0792 62.5316 38.9385V26.1161C62.5316 24.9753 61.6108 24.0546 60.4702 24.0546H54.2239H8.30778V9.29439V5.06148C8.30778 3.9208 7.38698 3 6.24629 3H2.06148C0.920796 3 0 3.9208 0 5.06148V12.7371V15.3826V24.4738V27.1193V38.9385C0 40.0723 0.920796 41 2.06148 41Z" fill="#9B9B9B"/>
</g>
<defs>
<clipPath id="clip0_0_572">
<rect width="113" height="41" fill="white"/>
</clipPath>
</defs>
</svg>
