<svg width="14" height="9" viewBox="0 0 14 9" fill="none" xmlns="http://www.w3.org/2000/svg">
<path fill-rule="evenodd" clip-rule="evenodd" d="M0.461538 8.50769H1.39846C1.65385 8.50769 1.86 8.30154 1.86 8.04615V6.57385H12.14V8.04615C12.14 8.30154 12.3462 8.50769 12.6015 8.50769H13.5385C13.7938 8.50769 14 8.30154 14 8.04615V5.17538C14 4.91998 13.7938 4.71385 13.5385 4.71385H12.14H1.86V1.40923V0.461538C1.86 0.206154 1.65385 0 1.39846 0H0.461538C0.206154 0 0 0.206154 0 0.461538V2.18V2.77231V4.80769V5.4V8.04615C0 8.3 0.206154 8.50769 0.461538 8.50769Z" fill="black"/>
</svg>
