<svg width="24" height="16" viewBox="0 0 24 16" fill="none" xmlns="http://www.w3.org/2000/svg">
<mask id="mask0_0_367" style="mask-type:alpha" maskUnits="userSpaceOnUse" x="0" y="0" width="24" height="16">
<path fill-rule="evenodd" clip-rule="evenodd" d="M0 0.0263672H23.9533V16.0001H0V0.0263672Z" fill="white"/>
</mask>
<g mask="url(#mask0_0_367)">
<path fill-rule="evenodd" clip-rule="evenodd" d="M23.5402 16.0001H0.413006C0.184936 16.0001 0 15.8119 0 15.5798V0.446748C0 0.214605 0.184936 0.0263672 0.413006 0.0263672H23.5403C23.7683 0.0263672 23.9533 0.214605 23.9533 0.446748V15.5798C23.9532 15.812 23.7683 16.0001 23.5402 16.0001Z" fill="#F5F5F5"/>
</g>
<path fill-rule="evenodd" clip-rule="evenodd" d="M24 1H0V0.342104C0 0.153187 0.185297 0 0.413812 0H23.5862C23.8147 0 24 0.153187 24 0.342104L24 1Z" fill="#FF4B55"/>
<mask id="mask1_0_367" style="mask-type:alpha" maskUnits="userSpaceOnUse" x="0" y="0" width="24" height="16">
<path fill-rule="evenodd" clip-rule="evenodd" d="M0 16H24V0H0V16Z" fill="white"/>
</mask>
<g mask="url(#mask1_0_367)">
<path fill-rule="evenodd" clip-rule="evenodd" d="M0 6H24V5H0V6Z" fill="#FF4B55"/>
<path fill-rule="evenodd" clip-rule="evenodd" d="M0 4H24V3H0V4Z" fill="#FF4B55"/>
<path fill-rule="evenodd" clip-rule="evenodd" d="M24 9H0.413812C0.185297 9 0 8.84681 0 8.6579V8H24V9Z" fill="#FF4B55"/>
<path fill-rule="evenodd" clip-rule="evenodd" d="M0 13H24V12H0V13Z" fill="#FF4B55"/>
<path fill-rule="evenodd" clip-rule="evenodd" d="M23.5862 16H0.413812C0.185297 16 0 15.8468 0 15.6579V15H24V15.658C24 15.8469 23.8147 16 23.5862 16Z" fill="#FF4B55"/>
<path fill-rule="evenodd" clip-rule="evenodd" d="M0 11H24V10H0V11Z" fill="#FF4B55"/>
<path fill-rule="evenodd" clip-rule="evenodd" d="M10.5925 0H0.407425C0.182436 0 0 0.196916 0 0.439823V8.56013C0 8.80303 0.182436 9 0.407425 9H10.5926C10.8176 9 11 8.80303 11 8.56013V0.439823C11 0.196916 10.8175 0 10.5925 0Z" fill="#41479B"/>
<path fill-rule="evenodd" clip-rule="evenodd" d="M1.54047 1.03056L1.6407 1.34519L1.95756 1.34771C1.9986 1.34809 2.01558 1.40285 1.98259 1.42836L1.7277 1.62541L1.82332 1.9416C1.83573 1.98251 1.79116 2.01644 1.75776 1.99142L1.5 1.79861L1.24224 1.99147C1.20884 2.01644 1.16437 1.98256 1.17668 1.94165L1.2723 1.62546L1.01741 1.42841C0.984424 1.40285 1.0014 1.34814 1.04244 1.34777L1.3593 1.34524L1.45953 1.03061C1.47245 0.989805 1.52744 0.989805 1.54047 1.03056Z" fill="#F5F5F5"/>
<path fill-rule="evenodd" clip-rule="evenodd" d="M1.54047 2.03052L1.6407 2.34516L1.95756 2.34769C1.9986 2.34806 2.01558 2.40283 1.98259 2.42833L1.7277 2.62539L1.82332 2.94159C1.83573 2.98251 1.79116 3.01644 1.75776 2.99142L1.5 2.79861L1.24224 2.99147C1.20884 3.01644 1.16437 2.98256 1.17668 2.94165L1.2723 2.62544L1.01741 2.42839C0.984424 2.40283 1.0014 2.34812 1.04244 2.34774L1.3593 2.34522L1.45953 2.03057C1.47245 1.98982 1.52744 1.98982 1.54047 2.03052Z" fill="#F5F5F5"/>
<path fill-rule="evenodd" clip-rule="evenodd" d="M1.54047 4.03052L1.6407 4.34516L1.95756 4.34769C1.9986 4.34806 2.01558 4.40283 1.98259 4.42833L1.7277 4.62539L1.82332 4.94159C1.83573 4.98251 1.79116 5.01644 1.75776 4.99142L1.5 4.79861L1.24224 4.99147C1.20884 5.01644 1.16437 4.98256 1.17668 4.94165L1.2723 4.62544L1.01741 4.42839C0.984424 4.40283 1.0014 4.34812 1.04244 4.34774L1.3593 4.34522L1.45953 4.03057C1.47245 3.98982 1.52744 3.98982 1.54047 4.03052Z" fill="#F5F5F5"/>
<path fill-rule="evenodd" clip-rule="evenodd" d="M1.54047 5.03056L1.6407 5.34519L1.95756 5.34771C1.9986 5.34809 2.01558 5.40285 1.98259 5.42836L1.7277 5.62541L1.82332 5.9416C1.83573 5.98251 1.79116 6.01644 1.75776 5.99142L1.5 5.79861L1.24224 5.99147C1.20884 6.01644 1.16437 5.98256 1.17668 5.94165L1.2723 5.62546L1.01741 5.42841C0.984424 5.40285 1.0014 5.34814 1.04244 5.34777L1.3593 5.34524L1.45953 5.03061C1.47245 4.98981 1.52744 4.98981 1.54047 5.03056Z" fill="#F5F5F5"/>
<path fill-rule="evenodd" clip-rule="evenodd" d="M1.54047 7.0306L1.6407 7.34522L1.95756 7.34774C1.9986 7.34812 2.01558 7.40288 1.98259 7.42838L1.7277 7.62542L1.82332 7.9416C1.83573 7.98251 1.79116 8.01644 1.75776 7.99142L1.5 7.79862L1.24224 7.99148C1.20884 8.01644 1.16437 7.98256 1.17668 7.94165L1.2723 7.62547L1.01741 7.42843C0.984424 7.40288 1.0014 7.34817 1.04244 7.34779L1.3593 7.34527L1.45953 7.03065C1.47245 6.98979 1.52744 6.98979 1.54047 7.0306Z" fill="#F5F5F5"/>
<path fill-rule="evenodd" clip-rule="evenodd" d="M2.54047 2.03053L2.6407 2.34518L2.95756 2.3477C2.9986 2.34808 3.01558 2.40285 2.98259 2.42835L2.7277 2.62541L2.82332 2.94162C2.83573 2.98254 2.79116 3.01647 2.75776 2.99145L2.5 2.79858L2.24224 2.99145C2.20884 3.01642 2.16437 2.98254 2.17668 2.94162L2.2723 2.62541L2.01741 2.42835C1.98442 2.40279 2.0014 2.34808 2.04244 2.3477L2.3593 2.34518L2.45953 2.03053C2.4724 1.98982 2.52749 1.98982 2.54047 2.03053Z" fill="#F5F5F5"/>
<path fill-rule="evenodd" clip-rule="evenodd" d="M2.54047 3.03056L2.6407 3.3452L2.95756 3.34773C2.9986 3.3481 3.01558 3.40287 2.98259 3.42838L2.7277 3.62543L2.82332 3.94163C2.83573 3.98254 2.79116 4.01647 2.75776 3.99145L2.5 3.79859L2.24224 3.99145C2.20884 4.01642 2.16437 3.98259 2.17668 3.94163L2.2723 3.62543L2.01741 3.42838C1.98442 3.40282 2.0014 3.3481 2.04244 3.34773L2.3593 3.3452L2.45953 3.03056C2.4724 2.98981 2.52749 2.98981 2.54047 3.03056Z" fill="#F5F5F5"/>
<path fill-rule="evenodd" clip-rule="evenodd" d="M2.54047 4.03056L2.6407 4.3452L2.95756 4.34773C2.9986 4.3481 3.01558 4.40287 2.98259 4.42838L2.7277 4.62543L2.82332 4.94163C2.83573 4.98254 2.79116 5.01647 2.75776 4.99145L2.5 4.79859L2.24224 4.99145C2.20884 5.01642 2.16437 4.98254 2.17668 4.94163L2.2723 4.62543L2.01741 4.42838C1.98442 4.40282 2.0014 4.3481 2.04244 4.34773L2.3593 4.3452L2.45953 4.03056C2.4724 3.98981 2.52749 3.98981 2.54047 4.03056Z" fill="#F5F5F5"/>
<path fill-rule="evenodd" clip-rule="evenodd" d="M2.54047 6.03053L2.6407 6.34518L2.95756 6.3477C2.9986 6.34808 3.01558 6.40285 2.98259 6.42835L2.7277 6.62541L2.82332 6.94162C2.83573 6.98254 2.79116 7.01647 2.75776 6.99145L2.5 6.79858L2.24224 6.99145C2.20884 7.01642 2.16437 6.98254 2.17668 6.94162L2.2723 6.62541L2.01741 6.42835C1.98442 6.40279 2.0014 6.34808 2.04244 6.3477L2.3593 6.34518L2.45953 6.03053C2.4724 5.98982 2.52749 5.98982 2.54047 6.03053Z" fill="#F5F5F5"/>
<path fill-rule="evenodd" clip-rule="evenodd" d="M3.54047 1.03056L3.6407 1.3452L3.95756 1.34773C3.9986 1.3481 4.01558 1.40287 3.98259 1.42838L3.7277 1.62543L3.82332 1.94163C3.83573 1.98254 3.79116 2.01647 3.75776 1.99145L3.5 1.79859L3.24224 1.99145C3.20884 2.01642 3.16437 1.98254 3.17668 1.94163L3.2723 1.62543L3.01741 1.42838C2.98442 1.40282 3.0014 1.3481 3.04244 1.34773L3.3593 1.3452L3.45953 1.03056C3.47245 0.989812 3.52749 0.989812 3.54047 1.03056Z" fill="#F5F5F5"/>
<path fill-rule="evenodd" clip-rule="evenodd" d="M3.54047 2.03053L3.6407 2.34518L3.95756 2.3477C3.9986 2.34808 4.01558 2.40285 3.98259 2.42835L3.7277 2.62541L3.82332 2.94162C3.83573 2.98254 3.79116 3.01647 3.75776 2.99145L3.5 2.79858L3.24224 2.99145C3.20884 3.01642 3.16437 2.98254 3.17668 2.94162L3.2723 2.62541L3.01741 2.42835C2.98442 2.40279 3.0014 2.34808 3.04244 2.3477L3.3593 2.34518L3.45953 2.03053C3.47245 1.98982 3.52749 1.98982 3.54047 2.03053Z" fill="#F5F5F5"/>
<path fill-rule="evenodd" clip-rule="evenodd" d="M3.54047 4.03053L3.6407 4.34518L3.95756 4.3477C3.9986 4.34808 4.01558 4.40285 3.98259 4.42835L3.7277 4.62541L3.82332 4.94162C3.83573 4.98254 3.79116 5.01647 3.75776 4.99145L3.5 4.79858L3.24224 4.99145C3.20884 5.01642 3.16437 4.98254 3.17668 4.94162L3.2723 4.62541L3.01741 4.42835C2.98442 4.40279 3.0014 4.34808 3.04244 4.3477L3.3593 4.34518L3.45953 4.03053C3.47245 3.98982 3.52749 3.98982 3.54047 4.03053Z" fill="#F5F5F5"/>
<path fill-rule="evenodd" clip-rule="evenodd" d="M3.54047 5.03056L3.6407 5.3452L3.95756 5.34773C3.9986 5.3481 4.01558 5.40287 3.98259 5.42838L3.7277 5.62543L3.82332 5.94163C3.83573 5.98254 3.79116 6.01647 3.75776 5.99145L3.5 5.79859L3.24224 5.99145C3.20884 6.01642 3.16437 5.98254 3.17668 5.94163L3.2723 5.62543L3.01741 5.42838C2.98442 5.40282 3.0014 5.3481 3.04244 5.34773L3.3593 5.3452L3.45953 5.03056C3.47245 4.98981 3.52749 4.98981 3.54047 5.03056Z" fill="#F5F5F5"/>
<path fill-rule="evenodd" clip-rule="evenodd" d="M3.54047 7.0306L3.6407 7.34523L3.95756 7.34775C3.9986 7.34813 4.01558 7.4029 3.98259 7.4284L3.7277 7.62544L3.82332 7.94163C3.83573 7.98254 3.79116 8.01647 3.75776 7.99145L3.5 7.7986L3.24224 7.99145C3.20884 8.01642 3.16437 7.98254 3.17668 7.94163L3.2723 7.62544L3.01741 7.4284C2.98442 7.40284 3.0014 7.34813 3.04244 7.34775L3.3593 7.34523L3.45953 7.0306C3.47245 6.9898 3.52749 6.9898 3.54047 7.0306Z" fill="#F5F5F5"/>
<path fill-rule="evenodd" clip-rule="evenodd" d="M4.54047 2.03053L4.6407 2.34518L4.95756 2.3477C4.9986 2.34808 5.01558 2.40285 4.98259 2.42835L4.7277 2.62541L4.82332 2.94162C4.83573 2.98254 4.79116 3.01647 4.75776 2.99145L4.5 2.79858L4.24224 2.99145C4.20884 3.01642 4.16437 2.98254 4.17668 2.94162L4.2723 2.62541L4.01741 2.42835C3.98442 2.40279 4.0014 2.34808 4.04244 2.3477L4.3593 2.34518L4.45953 2.03053C4.4724 1.98982 4.52749 1.98982 4.54047 2.03053Z" fill="#F5F5F5"/>
<path fill-rule="evenodd" clip-rule="evenodd" d="M4.54047 3.03056L4.6407 3.3452L4.95756 3.34773C4.9986 3.3481 5.01558 3.40287 4.98259 3.42838L4.7277 3.62543L4.82332 3.94163C4.83573 3.98254 4.79116 4.01647 4.75776 3.99145L4.5 3.79859L4.24224 3.99145C4.20884 4.01642 4.16437 3.98259 4.17668 3.94163L4.2723 3.62543L4.01741 3.42838C3.98442 3.40282 4.0014 3.3481 4.04244 3.34773L4.3593 3.3452L4.45953 3.03056C4.4724 2.98981 4.52749 2.98981 4.54047 3.03056Z" fill="#F5F5F5"/>
<path fill-rule="evenodd" clip-rule="evenodd" d="M4.54047 4.03056L4.6407 4.3452L4.95756 4.34773C4.9986 4.3481 5.01558 4.40287 4.98259 4.42838L4.7277 4.62543L4.82332 4.94163C4.83573 4.98254 4.79116 5.01647 4.75776 4.99145L4.5 4.79859L4.24224 4.99145C4.20884 5.01642 4.16437 4.98254 4.17668 4.94163L4.2723 4.62543L4.01741 4.42838C3.98442 4.40282 4.0014 4.3481 4.04244 4.34773L4.3593 4.3452L4.45953 4.03056C4.4724 3.98981 4.52749 3.98981 4.54047 4.03056Z" fill="#F5F5F5"/>
<path fill-rule="evenodd" clip-rule="evenodd" d="M4.54047 6.03053L4.6407 6.34518L4.95756 6.3477C4.9986 6.34808 5.01558 6.40285 4.98259 6.42835L4.7277 6.62541L4.82332 6.94162C4.83573 6.98254 4.79116 7.01647 4.75776 6.99145L4.5 6.79858L4.24224 6.99145C4.20884 7.01642 4.16437 6.98254 4.17668 6.94162L4.2723 6.62541L4.01741 6.42835C3.98442 6.40279 4.0014 6.34808 4.04244 6.3477L4.3593 6.34518L4.45953 6.03053C4.4724 5.98982 4.52749 5.98982 4.54047 6.03053Z" fill="#F5F5F5"/>
<path fill-rule="evenodd" clip-rule="evenodd" d="M5.5405 1.03056L5.64072 1.3452L5.95756 1.34773C5.9986 1.3481 6.01557 1.40287 5.98259 1.42838L5.72772 1.62543L5.82333 1.94163C5.83574 1.98254 5.79117 2.01647 5.75777 1.99145L5.49997 1.79859L5.24223 1.99145C5.20883 2.01642 5.16436 1.98254 5.17667 1.94163L5.27228 1.62543L5.01741 1.42838C4.98443 1.40282 5.0014 1.3481 5.04244 1.34773L5.35928 1.3452L5.4595 1.03056C5.47248 0.989812 5.52752 0.989812 5.5405 1.03056Z" fill="#F5F5F5"/>
<path fill-rule="evenodd" clip-rule="evenodd" d="M5.5405 2.03053L5.64072 2.34518L5.95756 2.3477C5.9986 2.34808 6.01557 2.40285 5.98259 2.42835L5.72772 2.62541L5.82333 2.94162C5.83574 2.98254 5.79117 3.01647 5.75777 2.99145L5.49997 2.79858L5.24223 2.99145C5.20883 3.01642 5.16436 2.98254 5.17667 2.94162L5.27228 2.62541L5.01741 2.42835C4.98443 2.40279 5.0014 2.34808 5.04244 2.3477L5.35928 2.34518L5.4595 2.03053C5.47248 1.98982 5.52752 1.98982 5.5405 2.03053Z" fill="#F5F5F5"/>
<path fill-rule="evenodd" clip-rule="evenodd" d="M5.5405 4.03053L5.64072 4.34518L5.95756 4.3477C5.9986 4.34808 6.01557 4.40285 5.98259 4.42835L5.72772 4.62541L5.82333 4.94162C5.83574 4.98254 5.79117 5.01647 5.75777 4.99145L5.49997 4.79858L5.24223 4.99145C5.20883 5.01642 5.16436 4.98254 5.17667 4.94162L5.27228 4.62541L5.01741 4.42835C4.98443 4.40279 5.0014 4.34808 5.04244 4.3477L5.35928 4.34518L5.4595 4.03053C5.47248 3.98982 5.52752 3.98982 5.5405 4.03053Z" fill="#F5F5F5"/>
<path fill-rule="evenodd" clip-rule="evenodd" d="M5.5405 5.03056L5.64072 5.3452L5.95756 5.34773C5.9986 5.3481 6.01557 5.40287 5.98259 5.42838L5.72772 5.62543L5.82333 5.94163C5.83574 5.98254 5.79117 6.01647 5.75777 5.99145L5.49997 5.79859L5.24223 5.99145C5.20883 6.01642 5.16436 5.98254 5.17667 5.94163L5.27228 5.62543L5.01741 5.42838C4.98443 5.40282 5.0014 5.3481 5.04244 5.34773L5.35928 5.3452L5.4595 5.03056C5.47248 4.98981 5.52752 4.98981 5.5405 5.03056Z" fill="#F5F5F5"/>
<path fill-rule="evenodd" clip-rule="evenodd" d="M5.5405 7.0306L5.64072 7.34523L5.95756 7.34775C5.9986 7.34813 6.01557 7.4029 5.98259 7.4284L5.72772 7.62544L5.82333 7.94163C5.83574 7.98254 5.79117 8.01647 5.75777 7.99145L5.49997 7.7986L5.24223 7.99145C5.20883 8.01642 5.16436 7.98254 5.17667 7.94163L5.27228 7.62544L5.01741 7.4284C4.98443 7.40284 5.0014 7.34813 5.04244 7.34775L5.35928 7.34523L5.4595 7.0306C5.47248 6.9898 5.52752 6.9898 5.5405 7.0306Z" fill="#F5F5F5"/>
<path fill-rule="evenodd" clip-rule="evenodd" d="M6.54047 2.03053L6.6407 2.34518L6.95756 2.3477C6.9986 2.34808 7.01558 2.40285 6.98259 2.42835L6.7277 2.62541L6.82332 2.94162C6.83573 2.98254 6.79116 3.01647 6.75776 2.99145L6.5 2.79858L6.24224 2.99145C6.20884 3.01642 6.16437 2.98254 6.17668 2.94162L6.2723 2.62541L6.01741 2.42835C5.98442 2.40279 6.0014 2.34808 6.04244 2.3477L6.3593 2.34518L6.45953 2.03053C6.47251 1.98982 6.52749 1.98982 6.54047 2.03053Z" fill="#F5F5F5"/>
<path fill-rule="evenodd" clip-rule="evenodd" d="M6.54047 3.03056L6.6407 3.3452L6.95756 3.34773C6.9986 3.3481 7.01558 3.40287 6.98259 3.42838L6.7277 3.62543L6.82332 3.94163C6.83573 3.98254 6.79116 4.01647 6.75776 3.99145L6.5 3.79859L6.24224 3.99145C6.20884 4.01642 6.16437 3.98259 6.17668 3.94163L6.2723 3.62543L6.01741 3.42838C5.98442 3.40282 6.0014 3.3481 6.04244 3.34773L6.3593 3.3452L6.45953 3.03056C6.47251 2.98981 6.52749 2.98981 6.54047 3.03056Z" fill="#F5F5F5"/>
<path fill-rule="evenodd" clip-rule="evenodd" d="M6.54047 4.03056L6.6407 4.3452L6.95756 4.34773C6.9986 4.3481 7.01558 4.40287 6.98259 4.42838L6.7277 4.62543L6.82332 4.94163C6.83573 4.98254 6.79116 5.01647 6.75776 4.99145L6.5 4.79859L6.24224 4.99145C6.20884 5.01642 6.16437 4.98254 6.17668 4.94163L6.2723 4.62543L6.01741 4.42838C5.98442 4.40282 6.0014 4.3481 6.04244 4.34773L6.3593 4.3452L6.45953 4.03056C6.47251 3.98981 6.52749 3.98981 6.54047 4.03056Z" fill="#F5F5F5"/>
<path fill-rule="evenodd" clip-rule="evenodd" d="M6.54047 6.03053L6.6407 6.34518L6.95756 6.3477C6.9986 6.34808 7.01558 6.40285 6.98259 6.42835L6.7277 6.62541L6.82332 6.94162C6.83573 6.98254 6.79116 7.01647 6.75776 6.99145L6.5 6.79858L6.24224 6.99145C6.20884 7.01642 6.16437 6.98254 6.17668 6.94162L6.2723 6.62541L6.01741 6.42835C5.98442 6.40279 6.0014 6.34808 6.04244 6.3477L6.3593 6.34518L6.45953 6.03053C6.47251 5.98982 6.52749 5.98982 6.54047 6.03053Z" fill="#F5F5F5"/>
<path fill-rule="evenodd" clip-rule="evenodd" d="M7.54047 1.03056L7.6407 1.3452L7.95756 1.34773C7.9986 1.3481 8.01558 1.40287 7.98259 1.42838L7.7277 1.62543L7.82332 1.94163C7.83573 1.98254 7.79116 2.01647 7.75776 1.99145L7.5 1.79859L7.24224 1.99145C7.20884 2.01642 7.16437 1.98254 7.17668 1.94163L7.2723 1.62543L7.01741 1.42838C6.98442 1.40282 7.0014 1.3481 7.04244 1.34773L7.3593 1.3452L7.45953 1.03056C7.4724 0.989812 7.52749 0.989812 7.54047 1.03056Z" fill="#F5F5F5"/>
<path fill-rule="evenodd" clip-rule="evenodd" d="M7.54047 2.03053L7.6407 2.34518L7.95756 2.3477C7.9986 2.34808 8.01558 2.40285 7.98259 2.42835L7.7277 2.62541L7.82332 2.94162C7.83573 2.98254 7.79116 3.01647 7.75776 2.99145L7.5 2.79858L7.24224 2.99145C7.20884 3.01642 7.16437 2.98254 7.17668 2.94162L7.2723 2.62541L7.01741 2.42835C6.98442 2.40279 7.0014 2.34808 7.04244 2.3477L7.3593 2.34518L7.45953 2.03053C7.4724 1.98982 7.52749 1.98982 7.54047 2.03053Z" fill="#F5F5F5"/>
<path fill-rule="evenodd" clip-rule="evenodd" d="M7.54047 4.03053L7.6407 4.34518L7.95756 4.3477C7.9986 4.34808 8.01558 4.40285 7.98259 4.42835L7.7277 4.62541L7.82332 4.94162C7.83573 4.98254 7.79116 5.01647 7.75776 4.99145L7.5 4.79858L7.24224 4.99145C7.20884 5.01642 7.16437 4.98254 7.17668 4.94162L7.2723 4.62541L7.01741 4.42835C6.98442 4.40279 7.0014 4.34808 7.04244 4.3477L7.3593 4.34518L7.45953 4.03053C7.4724 3.98982 7.52749 3.98982 7.54047 4.03053Z" fill="#F5F5F5"/>
<path fill-rule="evenodd" clip-rule="evenodd" d="M7.54047 5.03056L7.6407 5.3452L7.95756 5.34773C7.9986 5.3481 8.01558 5.40287 7.98259 5.42838L7.7277 5.62543L7.82332 5.94163C7.83573 5.98254 7.79116 6.01647 7.75776 5.99145L7.5 5.79859L7.24224 5.99145C7.20884 6.01642 7.16437 5.98254 7.17668 5.94163L7.2723 5.62543L7.01741 5.42838C6.98442 5.40282 7.0014 5.3481 7.04244 5.34773L7.3593 5.3452L7.45953 5.03056C7.4724 4.98981 7.52749 4.98981 7.54047 5.03056Z" fill="#F5F5F5"/>
<path fill-rule="evenodd" clip-rule="evenodd" d="M7.54047 7.0306L7.6407 7.34523L7.95756 7.34775C7.9986 7.34813 8.01558 7.4029 7.98259 7.4284L7.7277 7.62544L7.82332 7.94163C7.83573 7.98254 7.79116 8.01647 7.75776 7.99145L7.5 7.7986L7.24224 7.99145C7.20884 8.01642 7.16437 7.98254 7.17668 7.94163L7.2723 7.62544L7.01741 7.4284C6.98442 7.40284 7.0014 7.34813 7.04244 7.34775L7.3593 7.34523L7.45953 7.0306C7.4724 6.9898 7.52749 6.9898 7.54047 7.0306Z" fill="#F5F5F5"/>
<path fill-rule="evenodd" clip-rule="evenodd" d="M8.54047 2.03053L8.6407 2.34518L8.95756 2.3477C8.9986 2.34808 9.01558 2.40285 8.98259 2.42835L8.7277 2.62541L8.82332 2.94162C8.83573 2.98254 8.79116 3.01647 8.75776 2.99145L8.5 2.79858L8.24224 2.99145C8.20884 3.01642 8.16437 2.98254 8.17668 2.94162L8.2723 2.62541L8.01741 2.42835C7.98442 2.40279 8.0014 2.34808 8.04244 2.3477L8.3593 2.34518L8.45953 2.03053C8.47245 1.98982 8.52755 1.98982 8.54047 2.03053Z" fill="#F5F5F5"/>
<path fill-rule="evenodd" clip-rule="evenodd" d="M8.54047 3.03056L8.6407 3.3452L8.95756 3.34773C8.9986 3.3481 9.01558 3.40287 8.98259 3.42838L8.7277 3.62543L8.82332 3.94163C8.83573 3.98254 8.79116 4.01647 8.75776 3.99145L8.5 3.79859L8.24224 3.99145C8.20884 4.01642 8.16437 3.98259 8.17668 3.94163L8.2723 3.62543L8.01741 3.42838C7.98442 3.40282 8.0014 3.3481 8.04244 3.34773L8.3593 3.3452L8.45953 3.03056C8.47245 2.98981 8.52755 2.98981 8.54047 3.03056Z" fill="#F5F5F5"/>
<path fill-rule="evenodd" clip-rule="evenodd" d="M8.54047 4.03056L8.6407 4.3452L8.95756 4.34773C8.9986 4.3481 9.01558 4.40287 8.98259 4.42838L8.7277 4.62543L8.82332 4.94163C8.83573 4.98254 8.79116 5.01647 8.75776 4.99145L8.5 4.79859L8.24224 4.99145C8.20884 5.01642 8.16437 4.98254 8.17668 4.94163L8.2723 4.62543L8.01741 4.42838C7.98442 4.40282 8.0014 4.3481 8.04244 4.34773L8.3593 4.3452L8.45953 4.03056C8.47245 3.98981 8.52755 3.98981 8.54047 4.03056Z" fill="#F5F5F5"/>
<path fill-rule="evenodd" clip-rule="evenodd" d="M8.54047 6.03053L8.6407 6.34518L8.95756 6.3477C8.9986 6.34808 9.01558 6.40285 8.98259 6.42835L8.7277 6.62541L8.82332 6.94162C8.83573 6.98254 8.79116 7.01647 8.75776 6.99145L8.5 6.79858L8.24224 6.99145C8.20884 7.01642 8.16437 6.98254 8.17668 6.94162L8.2723 6.62541L8.01741 6.42835C7.98442 6.40279 8.0014 6.34808 8.04244 6.3477L8.3593 6.34518L8.45953 6.03053C8.47245 5.98982 8.52755 5.98982 8.54047 6.03053Z" fill="#F5F5F5"/>
<path fill-rule="evenodd" clip-rule="evenodd" d="M9.54047 1.03056L9.6407 1.3452L9.95756 1.34773C9.9986 1.3481 10.0156 1.40287 9.98259 1.42838L9.7277 1.62543L9.82332 1.94163C9.83573 1.98254 9.79116 2.01647 9.75776 1.99145L9.5 1.79859L9.24224 1.99145C9.20884 2.01642 9.16437 1.98254 9.17668 1.94163L9.2723 1.62543L9.01741 1.42838C8.98442 1.40282 9.0014 1.3481 9.04244 1.34773L9.3593 1.3452L9.45953 1.03056C9.47245 0.989812 9.52744 0.989812 9.54047 1.03056Z" fill="#F5F5F5"/>
<path fill-rule="evenodd" clip-rule="evenodd" d="M9.54047 2.03053L9.6407 2.34518L9.95756 2.3477C9.9986 2.34808 10.0156 2.40285 9.98259 2.42835L9.7277 2.62541L9.82332 2.94162C9.83573 2.98254 9.79116 3.01647 9.75776 2.99145L9.5 2.79858L9.24224 2.99145C9.20884 3.01642 9.16437 2.98254 9.17668 2.94162L9.2723 2.62541L9.01741 2.42835C8.98442 2.40279 9.0014 2.34808 9.04244 2.3477L9.3593 2.34518L9.45953 2.03053C9.47245 1.98982 9.52744 1.98982 9.54047 2.03053Z" fill="#F5F5F5"/>
<path fill-rule="evenodd" clip-rule="evenodd" d="M9.54047 4.03053L9.6407 4.34518L9.95756 4.3477C9.9986 4.34808 10.0156 4.40285 9.98259 4.42835L9.7277 4.62541L9.82332 4.94162C9.83573 4.98254 9.79116 5.01647 9.75776 4.99145L9.5 4.79858L9.24224 4.99145C9.20884 5.01642 9.16437 4.98254 9.17668 4.94162L9.2723 4.62541L9.01741 4.42835C8.98442 4.40279 9.0014 4.34808 9.04244 4.3477L9.3593 4.34518L9.45953 4.03053C9.47245 3.98982 9.52744 3.98982 9.54047 4.03053Z" fill="#F5F5F5"/>
<path fill-rule="evenodd" clip-rule="evenodd" d="M9.54047 5.03056L9.6407 5.3452L9.95756 5.34773C9.9986 5.3481 10.0156 5.40287 9.98259 5.42838L9.7277 5.62543L9.82332 5.94163C9.83573 5.98254 9.79116 6.01647 9.75776 5.99145L9.5 5.79859L9.24224 5.99145C9.20884 6.01642 9.16437 5.98254 9.17668 5.94163L9.2723 5.62543L9.01741 5.42838C8.98442 5.40282 9.0014 5.3481 9.04244 5.34773L9.3593 5.3452L9.45953 5.03056C9.47245 4.98981 9.52744 4.98981 9.54047 5.03056Z" fill="#F5F5F5"/>
<path fill-rule="evenodd" clip-rule="evenodd" d="M9.54047 7.0306L9.6407 7.34523L9.95756 7.34775C9.9986 7.34813 10.0156 7.4029 9.98259 7.4284L9.7277 7.62544L9.82332 7.94163C9.83573 7.98254 9.79116 8.01647 9.75776 7.99145L9.5 7.7986L9.24224 7.99145C9.20884 8.01642 9.16437 7.98254 9.17668 7.94163L9.2723 7.62544L9.01741 7.4284C8.98442 7.40284 9.0014 7.34813 9.04244 7.34775L9.3593 7.34523L9.45953 7.0306C9.47245 6.9898 9.52744 6.9898 9.54047 7.0306Z" fill="#F5F5F5"/>
</g>
</svg>
