<svg width="14" height="15" viewBox="0 0 14 15" fill="none" xmlns="http://www.w3.org/2000/svg">
<mask id="mask0_0_1035" style="mask-type:alpha" maskUnits="userSpaceOnUse" x="0" y="0" width="14" height="6">
<path fill-rule="evenodd" clip-rule="evenodd" d="M0 0.318237H13.9675V5.8083H0V0.318237Z" fill="white"/>
</mask>
<g mask="url(#mask0_0_1035)">
<path fill-rule="evenodd" clip-rule="evenodd" d="M13.6089 4.36175L7.77345 0.54961C7.29268 0.238428 6.67349 0.24161 6.19527 0.556292L0.353766 4.36493C-0.00864357 4.60388 -0.109189 5.09166 0.129447 5.45438C0.368402 5.81711 0.855856 5.91765 1.21922 5.67838L6.98977 1.91556L12.7536 5.68156C12.8863 5.76716 13.0339 5.80756 13.1803 5.80756C13.439 5.80756 13.691 5.68125 13.8412 5.44897C14.0776 5.08434 13.9732 4.59816 13.6089 4.36175Z" fill="black"/>
</g>
<path fill-rule="evenodd" clip-rule="evenodd" d="M10.5011 12.1267C9.96429 12.1267 9.52902 11.6917 9.52902 11.154C9.52902 10.6169 9.96429 10.1816 10.5011 10.1816C11.0382 10.1816 11.4737 10.6166 11.4737 11.154C11.4737 11.6917 11.0382 12.1267 10.5011 12.1267ZM3.70915 8.62602L3.82147 7.45574C3.90325 6.60493 4.60929 5.96411 5.46425 5.96411H5.63956V6.33192C5.63956 6.65106 5.89315 6.90529 6.21197 6.90529H7.75706C8.07588 6.90529 8.33393 6.65106 8.33393 6.33192V5.96442H8.50479C9.35975 5.96442 10.0658 6.60492 10.1472 7.45606L10.2599 8.62633L3.70915 8.62602ZM3.4667 12.1267C2.92993 12.1267 2.49465 11.6917 2.49465 11.154C2.49465 10.6169 2.92993 10.1816 3.4667 10.1816C4.00379 10.1816 4.43938 10.6166 4.43938 11.154C4.43938 11.6917 4.00379 12.1267 3.4667 12.1267ZM12.133 9.10488C12.085 8.82965 11.8457 8.62602 11.5667 8.62602H11.2459L11.1241 7.35742C10.9939 6.0007 9.86788 4.97424 8.50479 4.97424H5.46425C4.10084 4.97424 2.97511 6.00102 2.84465 7.35742L2.72311 8.62602H2.40206C2.1227 8.62602 1.88375 8.82965 1.83506 9.10488L1.35779 11.8107C1.29861 12.1461 1.39343 12.4913 1.61234 12.7516C1.82297 13.0023 2.1332 13.1518 2.45775 13.163V13.6122C2.45775 14.2483 2.96747 14.7606 3.60415 14.7606H3.96625C4.60229 14.7606 5.11965 14.2483 5.11965 13.6122V13.17H8.85256V13.6113C8.85256 14.2477 9.36579 14.7606 10.0018 14.7606H10.3642C11.0003 14.7606 11.5142 14.2477 11.5142 13.6113V13.163C11.8387 13.1518 12.147 13.0036 12.357 12.7532C12.5759 12.4919 12.6695 12.1486 12.6109 11.8129L12.133 9.10488Z" fill="black"/>
</svg>
