<svg width="100" height="41" viewBox="0 0 100 41" fill="none" xmlns="http://www.w3.org/2000/svg">
<path d="M51.986 17C51.854 17 51.746 16.958 51.662 16.874C51.59 16.79 51.554 16.688 51.554 16.568V7.244L48.818 9.35C48.71 9.422 48.602 9.452 48.494 9.44C48.386 9.416 48.29 9.35 48.206 9.242L47.45 8.27C47.378 8.162 47.348 8.048 47.36 7.928C47.384 7.808 47.45 7.712 47.558 7.64L51.59 4.526C51.662 4.466 51.734 4.43 51.806 4.418C51.878 4.406 51.956 4.4 52.04 4.4H53.624C53.744 4.4 53.846 4.442 53.93 4.526C54.014 4.61 54.056 4.712 54.056 4.832V16.568C54.056 16.688 54.014 16.79 53.93 16.874C53.846 16.958 53.744 17 53.624 17H51.986ZM52.456 36.16C51.5173 36.16 50.7173 35.984 50.056 35.632C49.4053 35.28 48.904 34.784 48.552 34.144C48.2107 33.504 48.0187 32.752 47.976 31.888C47.9653 31.4187 47.96 30.9227 47.96 30.4C47.96 29.8667 47.9653 29.36 47.976 28.88C48.0187 28.016 48.2107 27.2693 48.552 26.64C48.904 26.0107 49.4107 25.52 50.072 25.168C50.7333 24.816 51.528 24.64 52.456 24.64C53.2133 24.64 53.8693 24.7467 54.424 24.96C54.9787 25.1733 55.432 25.4453 55.784 25.776C56.1467 26.096 56.4133 26.432 56.584 26.784C56.7653 27.136 56.8613 27.4453 56.872 27.712C56.8827 27.808 56.856 27.888 56.792 27.952C56.728 28.0053 56.6427 28.032 56.536 28.032H55.592C55.4853 28.032 55.4053 28.0107 55.352 27.968C55.3093 27.9253 55.2667 27.8507 55.224 27.744C55.128 27.4667 54.968 27.1947 54.744 26.928C54.5307 26.6613 54.2373 26.4427 53.864 26.272C53.5013 26.0907 53.032 26 52.456 26C51.6133 26 50.9307 26.2293 50.408 26.688C49.896 27.1467 49.6187 27.904 49.576 28.96C49.544 29.9093 49.544 30.8587 49.576 31.808C49.6187 32.8747 49.9013 33.6427 50.424 34.112C50.9467 34.5707 51.6293 34.8 52.472 34.8C53.0373 34.8 53.5387 34.6987 53.976 34.496C54.424 34.2827 54.776 33.9573 55.032 33.52C55.288 33.0827 55.416 32.528 55.416 31.856V31.184H53.016C52.9093 31.184 52.8187 31.152 52.744 31.088C52.68 31.0133 52.648 30.9173 52.648 30.8V30.288C52.648 30.1707 52.68 30.08 52.744 30.016C52.8187 29.9413 52.9093 29.904 53.016 29.904H56.632C56.7493 29.904 56.84 29.9413 56.904 30.016C56.968 30.08 57 30.1707 57 30.288V31.824C57 32.6987 56.8187 33.4613 56.456 34.112C56.104 34.7627 55.5867 35.2693 54.904 35.632C54.2213 35.984 53.4053 36.16 52.456 36.16ZM61.3946 36.16C60.8613 36.16 60.376 36.0533 59.9386 35.84C59.5013 35.6267 59.1493 35.3387 58.8826 34.976C58.616 34.6133 58.4826 34.2027 58.4826 33.744C58.4826 33.008 58.7813 32.4213 59.3786 31.984C59.976 31.5467 60.7546 31.2587 61.7146 31.12L64.0986 30.784V30.32C64.0986 29.808 63.9493 29.408 63.6506 29.12C63.3626 28.832 62.888 28.688 62.2266 28.688C61.7466 28.688 61.3573 28.784 61.0586 28.976C60.7706 29.168 60.568 29.4133 60.4506 29.712C60.3866 29.872 60.2746 29.952 60.1146 29.952H59.3946C59.2773 29.952 59.1866 29.92 59.1226 29.856C59.0693 29.7813 59.0426 29.696 59.0426 29.6C59.0426 29.44 59.1013 29.2427 59.2186 29.008C59.3466 28.7733 59.5386 28.544 59.7946 28.32C60.0506 28.096 60.376 27.9093 60.7706 27.76C61.176 27.6 61.6666 27.52 62.2426 27.52C62.8826 27.52 63.4213 27.6053 63.8586 27.776C64.296 27.936 64.6373 28.1547 64.8826 28.432C65.1386 28.7093 65.32 29.024 65.4266 29.376C65.544 29.728 65.6026 30.0853 65.6026 30.448V35.632C65.6026 35.7387 65.5653 35.8293 65.4906 35.904C65.4266 35.968 65.3413 36 65.2346 36H64.4986C64.3813 36 64.2906 35.968 64.2266 35.904C64.1626 35.8293 64.1306 35.7387 64.1306 35.632V34.944C63.992 35.136 63.8053 35.328 63.5706 35.52C63.336 35.7013 63.0426 35.856 62.6906 35.984C62.3386 36.1013 61.9066 36.16 61.3946 36.16ZM61.7306 34.96C62.168 34.96 62.568 34.8693 62.9306 34.688C63.2933 34.496 63.576 34.2027 63.7786 33.808C63.992 33.4133 64.0986 32.9173 64.0986 32.32V31.872L62.2426 32.144C61.4853 32.2507 60.9146 32.432 60.5306 32.688C60.1466 32.9333 59.9546 33.248 59.9546 33.632C59.9546 33.9307 60.04 34.1813 60.2106 34.384C60.392 34.576 60.616 34.72 60.8826 34.816C61.16 34.912 61.4426 34.96 61.7306 34.96ZM68.2708 36C68.1641 36 68.0734 35.968 67.9988 35.904C67.9348 35.8293 67.9028 35.7387 67.9028 35.632V28.064C67.9028 27.9573 67.9348 27.8667 67.9988 27.792C68.0734 27.7173 68.1641 27.68 68.2708 27.68H69.0068C69.1134 27.68 69.2041 27.7173 69.2788 27.792C69.3534 27.8667 69.3908 27.9573 69.3908 28.064V28.768C69.6041 28.4053 69.8974 28.1333 70.2708 27.952C70.6441 27.7707 71.0921 27.68 71.6148 27.68H72.2548C72.3614 27.68 72.4468 27.7173 72.5108 27.792C72.5748 27.856 72.6068 27.9413 72.6068 28.048V28.704C72.6068 28.8107 72.5748 28.896 72.5108 28.96C72.4468 29.024 72.3614 29.056 72.2548 29.056H71.2948C70.7188 29.056 70.2654 29.2267 69.9348 29.568C69.6041 29.8987 69.4388 30.352 69.4388 30.928V35.632C69.4388 35.7387 69.4014 35.8293 69.3268 35.904C69.2521 35.968 69.1614 36 69.0548 36H68.2708ZM76.1759 36.16C75.6425 36.16 75.1572 36.0533 74.7199 35.84C74.2825 35.6267 73.9305 35.3387 73.6639 34.976C73.3972 34.6133 73.2639 34.2027 73.2639 33.744C73.2639 33.008 73.5625 32.4213 74.1599 31.984C74.7572 31.5467 75.5359 31.2587 76.4959 31.12L78.8799 30.784V30.32C78.8799 29.808 78.7305 29.408 78.4319 29.12C78.1439 28.832 77.6692 28.688 77.0079 28.688C76.5279 28.688 76.1385 28.784 75.8399 28.976C75.5519 29.168 75.3492 29.4133 75.2319 29.712C75.1679 29.872 75.0559 29.952 74.8959 29.952H74.1759C74.0585 29.952 73.9679 29.92 73.9039 29.856C73.8505 29.7813 73.8239 29.696 73.8239 29.6C73.8239 29.44 73.8825 29.2427 73.9999 29.008C74.1279 28.7733 74.3199 28.544 74.5759 28.32C74.8319 28.096 75.1572 27.9093 75.5519 27.76C75.9572 27.6 76.4479 27.52 77.0239 27.52C77.6639 27.52 78.2025 27.6053 78.6399 27.776C79.0772 27.936 79.4185 28.1547 79.6639 28.432C79.9199 28.7093 80.1012 29.024 80.2079 29.376C80.3252 29.728 80.3839 30.0853 80.3839 30.448V35.632C80.3839 35.7387 80.3465 35.8293 80.2719 35.904C80.2079 35.968 80.1225 36 80.0159 36H79.2799C79.1625 36 79.0719 35.968 79.0079 35.904C78.9439 35.8293 78.9119 35.7387 78.9119 35.632V34.944C78.7732 35.136 78.5865 35.328 78.3519 35.52C78.1172 35.7013 77.8239 35.856 77.4719 35.984C77.1199 36.1013 76.6879 36.16 76.1759 36.16ZM76.5119 34.96C76.9492 34.96 77.3492 34.8693 77.7119 34.688C78.0745 34.496 78.3572 34.2027 78.5599 33.808C78.7732 33.4133 78.8799 32.9173 78.8799 32.32V31.872L77.0239 32.144C76.2665 32.2507 75.6959 32.432 75.3119 32.688C74.9279 32.9333 74.7359 33.248 74.7359 33.632C74.7359 33.9307 74.8212 34.1813 74.9919 34.384C75.1732 34.576 75.3972 34.72 75.6639 34.816C75.9412 34.912 76.2239 34.96 76.5119 34.96ZM86.092 39.52C85.3667 39.52 84.7693 39.424 84.3 39.232C83.8413 39.04 83.4787 38.8053 83.212 38.528C82.956 38.2613 82.7693 37.9893 82.652 37.712C82.5453 37.4453 82.4867 37.232 82.476 37.072C82.4653 36.9653 82.4973 36.8747 82.572 36.8C82.6573 36.7253 82.748 36.688 82.844 36.688H83.612C83.708 36.688 83.788 36.7093 83.852 36.752C83.916 36.7947 83.9693 36.8853 84.012 37.024C84.076 37.184 84.172 37.36 84.3 37.552C84.428 37.7547 84.6253 37.9253 84.892 38.064C85.1587 38.2133 85.532 38.288 86.012 38.288C86.5133 38.288 86.9347 38.2187 87.276 38.08C87.6173 37.952 87.8733 37.7173 88.044 37.376C88.2253 37.0453 88.316 36.5867 88.316 36V34.912C88.06 35.2427 87.724 35.52 87.308 35.744C86.892 35.9573 86.3693 36.064 85.74 36.064C85.1427 36.064 84.6307 35.9627 84.204 35.76C83.7773 35.5467 83.4253 35.264 83.148 34.912C82.8813 34.5493 82.6787 34.1387 82.54 33.68C82.412 33.2213 82.3373 32.7413 82.316 32.24C82.3053 31.9413 82.3053 31.648 82.316 31.36C82.3373 30.8587 82.412 30.3787 82.54 29.92C82.6787 29.4613 82.8813 29.0507 83.148 28.688C83.4253 28.3253 83.7773 28.0427 84.204 27.84C84.6307 27.6267 85.1427 27.52 85.74 27.52C86.38 27.52 86.908 27.6427 87.324 27.888C87.7507 28.1227 88.0973 28.4107 88.364 28.752V28.064C88.364 27.9573 88.396 27.8667 88.46 27.792C88.5347 27.7173 88.6253 27.68 88.732 27.68H89.468C89.5747 27.68 89.6653 27.7173 89.74 27.792C89.8147 27.8667 89.852 27.9573 89.852 28.064V35.824C89.852 36.5387 89.7293 37.1733 89.484 37.728C89.2493 38.2827 88.8547 38.72 88.3 39.04C87.756 39.36 87.02 39.52 86.092 39.52ZM86.06 34.784C86.5933 34.784 87.02 34.6613 87.34 34.416C87.6707 34.1707 87.9107 33.8613 88.06 33.488C88.22 33.1147 88.3053 32.736 88.316 32.352C88.3267 32.2027 88.332 32.0213 88.332 31.808C88.332 31.584 88.3267 31.3973 88.316 31.248C88.3053 30.864 88.22 30.4853 88.06 30.112C87.9107 29.7387 87.6707 29.4293 87.34 29.184C87.02 28.9387 86.5933 28.816 86.06 28.816C85.5267 28.816 85.1 28.9387 84.78 29.184C84.46 29.4187 84.2307 29.7333 84.092 30.128C83.9533 30.512 83.8733 30.928 83.852 31.376C83.8413 31.6533 83.8413 31.936 83.852 32.224C83.8733 32.672 83.9533 33.0933 84.092 33.488C84.2307 33.872 84.46 34.1867 84.78 34.432C85.1 34.6667 85.5267 34.784 86.06 34.784ZM95.5429 36.16C94.4442 36.16 93.5695 35.824 92.9189 35.152C92.2682 34.4693 91.9109 33.5413 91.8469 32.368C91.8362 32.2293 91.8309 32.0533 91.8309 31.84C91.8309 31.616 91.8362 31.4347 91.8469 31.296C91.8895 30.5387 92.0655 29.8773 92.3749 29.312C92.6842 28.736 93.1055 28.2933 93.6389 27.984C94.1829 27.6747 94.8175 27.52 95.5429 27.52C96.3535 27.52 97.0309 27.6907 97.5749 28.032C98.1295 28.3733 98.5509 28.8587 98.8389 29.488C99.1269 30.1173 99.2709 30.8533 99.2709 31.696V31.968C99.2709 32.0853 99.2335 32.176 99.1589 32.24C99.0949 32.304 99.0095 32.336 98.9029 32.336H93.3669C93.3669 32.3467 93.3669 32.368 93.3669 32.4C93.3669 32.432 93.3669 32.4587 93.3669 32.48C93.3882 32.9173 93.4842 33.328 93.6549 33.712C93.8255 34.0853 94.0709 34.3893 94.3909 34.624C94.7109 34.8587 95.0949 34.976 95.5429 34.976C95.9269 34.976 96.2469 34.9173 96.5029 34.8C96.7589 34.6827 96.9669 34.5547 97.1269 34.416C97.2869 34.2667 97.3935 34.1547 97.4469 34.08C97.5429 33.9413 97.6175 33.8613 97.6709 33.84C97.7242 33.808 97.8095 33.792 97.9269 33.792H98.6949C98.8015 33.792 98.8869 33.824 98.9509 33.888C99.0255 33.9413 99.0575 34.0213 99.0469 34.128C99.0362 34.288 98.9509 34.4853 98.7909 34.72C98.6309 34.944 98.4015 35.168 98.1029 35.392C97.8042 35.616 97.4415 35.8027 97.0149 35.952C96.5882 36.0907 96.0975 36.16 95.5429 36.16ZM93.3669 31.232H97.7509V31.184C97.7509 30.704 97.6602 30.2773 97.4789 29.904C97.3082 29.5307 97.0575 29.2373 96.7269 29.024C96.3962 28.8 96.0015 28.688 95.5429 28.688C95.0842 28.688 94.6895 28.8 94.3589 29.024C94.0389 29.2373 93.7935 29.5307 93.6229 29.904C93.4522 30.2773 93.3669 30.704 93.3669 31.184V31.232Z" fill="#9B9B9B"/>
<mask id="mask0_0_588" style="mask-type:alpha" maskUnits="userSpaceOnUse" x="0" y="0" width="36" height="15">
<path fill-rule="evenodd" clip-rule="evenodd" d="M0 0.808838H35.492V14.7593H0V0.808838Z" fill="white"/>
</mask>
<g mask="url(#mask0_0_588)">
<path fill-rule="evenodd" clip-rule="evenodd" d="M34.5807 11.0833L19.7527 1.39652C18.531 0.605796 16.9576 0.613881 15.7424 1.4135L0.898994 11.0914C-0.0219001 11.6986 -0.277389 12.938 0.328994 13.8597C0.936185 14.7814 2.17482 15.0369 3.09814 14.4289L17.7613 4.86746L32.4075 14.437C32.7446 14.6545 33.1198 14.7572 33.4917 14.7572C34.149 14.7572 34.7893 14.4362 35.171 13.846C35.7717 12.9194 35.5065 11.684 34.5807 11.0833Z" fill="#9B9B9B"/>
</g>
<path fill-rule="evenodd" clip-rule="evenodd" d="M26.6835 30.8144C25.3196 30.8144 24.2135 29.7092 24.2135 28.3428C24.2135 26.978 25.3196 25.872 26.6835 25.872C28.0483 25.872 29.1551 26.9772 29.1551 28.3428C29.1551 29.7092 28.0483 30.8144 26.6835 30.8144ZM9.42504 21.9192L9.71045 18.9455C9.91823 16.7835 11.7123 15.1552 13.8848 15.1552H14.3303V16.0898C14.3303 16.9007 14.9747 17.5467 15.7848 17.5467H19.7109C20.521 17.5467 21.1767 16.9007 21.1767 16.0898V15.156H21.6109C23.7834 15.156 25.5775 16.7835 25.7844 18.9463L26.0707 21.92L9.42504 21.9192ZM8.80896 30.8144C7.445 30.8144 6.33896 29.7092 6.33896 28.3428C6.33896 26.978 7.445 25.872 8.80896 25.872C10.1737 25.872 11.2806 26.9772 11.2806 28.3428C11.2806 29.7092 10.1737 30.8144 8.80896 30.8144ZM30.8304 23.136C30.7083 22.4366 30.1003 21.9192 29.3912 21.9192H28.5762L28.2666 18.6956C27.9359 15.2481 25.0746 12.6399 21.6109 12.6399H13.8848C10.4203 12.6399 7.55981 15.249 7.22832 18.6956L6.91947 21.9192H6.10368C5.39381 21.9192 4.78662 22.4366 4.66291 23.136L3.45015 30.0116C3.29977 30.8637 3.5407 31.741 4.09696 32.4023C4.63219 33.0394 5.42049 33.4194 6.24517 33.4477V34.5893C6.24517 36.2056 7.5404 37.5073 9.15823 37.5073H10.0783C11.6945 37.5073 13.0092 36.2056 13.0092 34.5893V33.4655H22.4946V34.5869C22.4946 36.2039 23.7987 37.5073 25.415 37.5073H26.3359C27.9521 37.5073 29.2578 36.2039 29.2578 34.5869V33.4477C30.0825 33.4194 30.8659 33.0427 31.3996 32.4064C31.9558 31.7426 32.1935 30.8702 32.0447 30.0172L30.8304 23.136Z" fill="#9B9B9B"/>
</svg>
