<svg width="37" height="41" viewBox="0 0 37 41" fill="none" xmlns="http://www.w3.org/2000/svg">
<path fill-rule="evenodd" clip-rule="evenodd" d="M23.7995 19.0441L18.7065 16.159C18.3324 15.947 17.8713 15.947 17.4971 16.159L12.4042 19.0441C12.2171 19.1501 12.1019 19.3461 12.1019 19.558V25.4068C12.1019 25.7344 12.3726 26 12.7065 26H15.3454C15.6793 26 15.95 25.7344 15.95 25.4068V21.7468C15.95 21.419 16.2207 21.1534 16.5548 21.1534H19.6489C19.983 21.1534 20.2537 21.419 20.2537 21.7468V25.4068C20.2537 25.7344 20.5244 26 20.8583 26H23.4972C23.8311 26 24.1019 25.7344 24.1019 25.4068V19.558C24.1019 19.3461 23.9866 19.1501 23.7995 19.0441" fill="#2A42E8"/>
<mask id="mask0_0_1143" style="mask-type:alpha" maskUnits="userSpaceOnUse" x="0" y="0" width="37" height="41">
<path fill-rule="evenodd" clip-rule="evenodd" d="M0.101852 0.117432H36.0539V41H0.101852V0.117432Z" fill="white"/>
</mask>
<g mask="url(#mask0_0_1143)">
<path fill-rule="evenodd" clip-rule="evenodd" d="M29.0907 19.1296V22.9068V25.3708C29.0907 25.8001 28.8637 26.1967 28.4952 26.4113L24.0178 29.0194L18.6603 32.14C18.2917 32.3546 17.8378 32.3546 17.4693 32.14L12.1117 29.0194V29.0042L7.66049 26.4113C7.29201 26.1967 7.06497 25.8001 7.06497 25.3708V22.9068V19.1296V16.6658C7.06497 16.2366 7.29201 15.8398 7.66049 15.6253L12.4226 12.8515C12.7911 12.6368 13.245 12.6368 13.6135 12.8515L17.4824 15.1049C17.8507 15.3196 18.3048 15.3196 18.6733 15.1049L22.5421 12.8515C22.9107 12.6368 23.3647 12.6368 23.7331 12.8515L28.4952 15.6253C28.8637 15.8398 29.0907 16.2366 29.0907 16.6658V19.1296ZM34.4539 9.15632L19.6778 0.549869C18.6877 -0.026714 17.4679 -0.026714 16.4778 0.549869L1.70177 9.15632C0.711692 9.73306 0.101772 10.7989 0.101772 11.9522V29.1651C0.101772 30.3185 0.711692 31.3843 1.70177 31.961L16.4778 40.5675C17.4679 41.1442 18.6877 41.1442 19.6778 40.5675L34.4539 31.961C35.4439 31.3843 36.0539 30.3185 36.0539 29.1651V11.9522C36.0539 10.7989 35.4439 9.73306 34.4539 9.15632V9.15632Z" fill="#2A42E8"/>
</g>
</svg>
