<svg width="215" height="82" viewBox="0 0 215 82" fill="none" xmlns="http://www.w3.org/2000/svg">
<g clip-path="url(#clip0_0_1142)">
<path fill-rule="evenodd" clip-rule="evenodd" d="M23.7995 41.0441L18.7065 38.159C18.3324 37.947 17.8713 37.947 17.4971 38.159L12.4042 41.0441C12.2171 41.1501 12.1019 41.3461 12.1019 41.558V47.4068C12.1019 47.7344 12.3726 48 12.7065 48H15.3454C15.6793 48 15.95 47.7344 15.95 47.4068V43.7468C15.95 43.419 16.2207 43.1534 16.5548 43.1534H19.6489C19.983 43.1534 20.2537 43.419 20.2537 43.7468V47.4068C20.2537 47.7344 20.5244 48 20.8583 48H23.4972C23.8311 48 24.1019 47.7344 24.1019 47.4068V41.558C24.1019 41.3461 23.9866 41.1501 23.7995 41.0441" fill="#2A42E8"/>
<mask id="mask0_0_1142" style="mask-type:alpha" maskUnits="userSpaceOnUse" x="0" y="22" width="37" height="41">
<path fill-rule="evenodd" clip-rule="evenodd" d="M0.101852 22.1174H36.0539V63H0.101852V22.1174Z" fill="white"/>
</mask>
<g mask="url(#mask0_0_1142)">
<path fill-rule="evenodd" clip-rule="evenodd" d="M29.0907 41.1296V44.9068V47.3708C29.0907 47.8001 28.8637 48.1967 28.4952 48.4113L24.0178 51.0194L18.6603 54.14C18.2917 54.3546 17.8378 54.3546 17.4693 54.14L12.1117 51.0194V51.0042L7.66049 48.4113C7.29201 48.1967 7.06497 47.8001 7.06497 47.3708V44.9068V41.1296V38.6658C7.06497 38.2366 7.29201 37.8398 7.66049 37.6253L12.4226 34.8515C12.7911 34.6368 13.245 34.6368 13.6135 34.8515L17.4824 37.1049C17.8507 37.3196 18.3048 37.3196 18.6733 37.1049L22.5421 34.8515C22.9107 34.6368 23.3647 34.6368 23.7331 34.8515L28.4952 37.6253C28.8637 37.8398 29.0907 38.2366 29.0907 38.6658V41.1296ZM34.4539 31.1563L19.6778 22.5499C18.6877 21.9733 17.4679 21.9733 16.4778 22.5499L1.70177 31.1563C0.711692 31.7331 0.101772 32.7989 0.101772 33.9522V51.1651C0.101772 52.3185 0.711692 53.3843 1.70177 53.961L16.4778 62.5675C17.4679 63.1442 18.6877 63.1442 19.6778 62.5675L34.4539 53.961C35.4439 53.3843 36.0539 52.3185 36.0539 51.1651V33.9522C36.0539 32.7989 35.4439 31.7331 34.4539 31.1563V31.1563Z" fill="#2A42E8"/>
</g>
<path d="M55.8859 52.28C54.5792 52.28 53.4685 52.028 52.5539 51.524C51.6392 51.0013 50.9392 50.2547 50.4539 49.284C49.9872 48.3133 49.7352 47.1653 49.6979 45.84C49.6792 45.56 49.6699 45.1867 49.6699 44.72C49.6699 44.2533 49.6792 43.88 49.6979 43.6C49.7352 42.256 49.9872 41.108 50.4539 40.156C50.9392 39.1853 51.6392 38.448 52.5539 37.944C53.4685 37.4213 54.5792 37.16 55.8859 37.16C56.8752 37.16 57.7245 37.3 58.4339 37.58C59.1619 37.8413 59.7592 38.196 60.2259 38.644C60.6925 39.0733 61.0472 39.5493 61.2899 40.072C61.5325 40.5947 61.6632 41.108 61.6819 41.612C61.7005 41.7987 61.6445 41.948 61.5139 42.06C61.3832 42.172 61.2339 42.228 61.0659 42.228H60.6739C60.4872 42.228 60.3472 42.1907 60.2539 42.116C60.1792 42.0227 60.0952 41.864 60.0019 41.64C59.6099 40.576 59.0685 39.8387 58.3779 39.428C57.7059 38.9987 56.8752 38.784 55.8859 38.784C54.6165 38.784 53.5619 39.176 52.7219 39.96C51.9005 40.7253 51.4619 41.9853 51.4059 43.74C51.3685 44.3933 51.3685 45.0467 51.4059 45.7C51.4619 47.4547 51.9005 48.724 52.7219 49.508C53.5619 50.2733 54.6165 50.656 55.8859 50.656C56.8752 50.656 57.7059 50.4507 58.3779 50.04C59.0685 49.6107 59.6099 48.864 60.0019 47.8C60.0952 47.576 60.1792 47.4267 60.2539 47.352C60.3472 47.2587 60.4872 47.212 60.6739 47.212H61.0659C61.2339 47.212 61.3832 47.268 61.5139 47.38C61.6445 47.492 61.7005 47.6413 61.6819 47.828C61.6632 48.2387 61.5792 48.6493 61.4299 49.06C61.2805 49.4707 61.0472 49.872 60.7299 50.264C60.4312 50.656 60.0579 51.0013 59.6099 51.3C59.1619 51.5987 58.6205 51.832 57.9859 52C57.3699 52.1867 56.6699 52.28 55.8859 52.28ZM69.3016 52.28C68.4056 52.28 67.5749 52.0933 66.8096 51.72C66.0629 51.3467 65.4562 50.852 64.9896 50.236C64.5229 49.6013 64.2896 48.892 64.2896 48.108C64.2896 46.8387 64.8029 45.8213 65.8296 45.056C66.8562 44.2907 68.1909 43.796 69.8336 43.572L74.2576 42.956V41.976C74.2576 40.9867 73.9496 40.212 73.3336 39.652C72.7362 39.0733 71.7749 38.784 70.4496 38.784C69.4789 38.784 68.6949 38.98 68.0976 39.372C67.5002 39.7453 67.0896 40.24 66.8656 40.856C66.7722 41.136 66.5949 41.276 66.3336 41.276H65.8856C65.6616 41.276 65.5029 41.22 65.4096 41.108C65.3162 40.9773 65.2696 40.828 65.2696 40.66C65.2696 40.3987 65.3629 40.072 65.5496 39.68C65.7549 39.288 66.0629 38.9053 66.4736 38.532C66.8842 38.14 67.4162 37.8133 68.0696 37.552C68.7229 37.2907 69.5162 37.16 70.4496 37.16C71.5509 37.16 72.4562 37.3093 73.1656 37.608C73.8936 37.9067 74.4536 38.2987 74.8456 38.784C75.2562 39.2507 75.5456 39.7733 75.7136 40.352C75.8816 40.9307 75.9656 41.5 75.9656 42.06V51.384C75.9656 51.5707 75.9096 51.72 75.7976 51.832C75.6856 51.944 75.5362 52 75.3496 52H74.8736C74.6869 52 74.5376 51.944 74.4256 51.832C74.3136 51.72 74.2576 51.5707 74.2576 51.384V50.068C74.0336 50.404 73.7162 50.74 73.3056 51.076C72.8949 51.412 72.3629 51.7013 71.7096 51.944C71.0749 52.168 70.2722 52.28 69.3016 52.28ZM69.5816 50.656C70.4402 50.656 71.2242 50.4693 71.9336 50.096C72.6429 49.7227 73.2029 49.1533 73.6136 48.388C74.0429 47.604 74.2576 46.624 74.2576 45.448V44.496L70.6456 45C69.1149 45.2053 67.9576 45.56 67.1736 46.064C66.3896 46.568 65.9976 47.2027 65.9976 47.968C65.9976 48.584 66.1749 49.088 66.5296 49.48C66.8842 49.872 67.3322 50.1707 67.8736 50.376C68.4336 50.5627 69.0029 50.656 69.5816 50.656ZM85.0133 52.28C84.0426 52.28 83.2026 52.1493 82.4933 51.888C81.8026 51.6267 81.2333 51.3187 80.7853 50.964C80.3373 50.5907 80.0013 50.2267 79.7773 49.872C79.572 49.5173 79.46 49.2467 79.4413 49.06C79.4226 48.8547 79.488 48.7053 79.6373 48.612C79.7866 48.5 79.9266 48.444 80.0573 48.444H80.4773C80.5893 48.444 80.6826 48.4627 80.7573 48.5C80.8506 48.5373 80.9626 48.64 81.0933 48.808C81.336 49.1253 81.616 49.4333 81.9333 49.732C82.2506 50.012 82.652 50.236 83.1373 50.404C83.6413 50.572 84.2666 50.656 85.0133 50.656C86.1333 50.656 87.0573 50.4413 87.7853 50.012C88.5133 49.5827 88.8773 48.948 88.8773 48.108C88.8773 47.5853 88.728 47.1653 88.4293 46.848C88.1493 46.5307 87.664 46.2507 86.9733 46.008C86.2826 45.7653 85.3493 45.5133 84.1733 45.252C82.9973 44.972 82.092 44.636 81.4573 44.244C80.8413 43.852 80.4213 43.404 80.1973 42.9C79.9733 42.3773 79.8613 41.8173 79.8613 41.22C79.8613 40.5667 80.048 39.932 80.4213 39.316C80.7946 38.6813 81.3453 38.168 82.0733 37.776C82.82 37.3653 83.7533 37.16 84.8733 37.16C85.788 37.16 86.5626 37.2813 87.1973 37.524C87.8506 37.7667 88.3826 38.0653 88.7933 38.42C89.204 38.756 89.5026 39.092 89.6893 39.428C89.8946 39.764 90.0066 40.0347 90.0253 40.24C90.044 40.4267 89.988 40.576 89.8573 40.688C89.7266 40.8 89.5773 40.856 89.4093 40.856H88.9893C88.84 40.856 88.7186 40.828 88.6253 40.772C88.532 40.6973 88.448 40.604 88.3733 40.492C88.1866 40.1933 87.9626 39.9133 87.7013 39.652C87.44 39.3907 87.0853 39.1853 86.6373 39.036C86.208 38.868 85.62 38.784 84.8733 38.784C83.7533 38.784 82.9226 39.0173 82.3813 39.484C81.84 39.932 81.5693 40.5107 81.5693 41.22C81.5693 41.6307 81.6813 41.9947 81.9053 42.312C82.1293 42.6107 82.5493 42.8907 83.1653 43.152C83.7813 43.3947 84.6773 43.656 85.8533 43.936C87.048 44.1973 87.9906 44.524 88.6813 44.916C89.372 45.2893 89.8573 45.7373 90.1373 46.26C90.436 46.7827 90.5853 47.3987 90.5853 48.108C90.5853 48.8547 90.3706 49.5453 89.9413 50.18C89.5306 50.8147 88.9053 51.328 88.0653 51.72C87.244 52.0933 86.2266 52.28 85.0133 52.28ZM98.0945 52.28C97.1985 52.28 96.3679 52.0933 95.6025 51.72C94.8559 51.3467 94.2492 50.852 93.7825 50.236C93.3159 49.6013 93.0825 48.892 93.0825 48.108C93.0825 46.8387 93.5959 45.8213 94.6225 45.056C95.6492 44.2907 96.9839 43.796 98.6265 43.572L103.051 42.956V41.976C103.051 40.9867 102.743 40.212 102.127 39.652C101.529 39.0733 100.568 38.784 99.2425 38.784C98.2719 38.784 97.4879 38.98 96.8905 39.372C96.2932 39.7453 95.8825 40.24 95.6585 40.856C95.5652 41.136 95.3879 41.276 95.1265 41.276H94.6785C94.4545 41.276 94.2959 41.22 94.2025 41.108C94.1092 40.9773 94.0625 40.828 94.0625 40.66C94.0625 40.3987 94.1559 40.072 94.3425 39.68C94.5479 39.288 94.8559 38.9053 95.2665 38.532C95.6772 38.14 96.2092 37.8133 96.8625 37.552C97.5159 37.2907 98.3092 37.16 99.2425 37.16C100.344 37.16 101.249 37.3093 101.959 37.608C102.687 37.9067 103.247 38.2987 103.639 38.784C104.049 39.2507 104.339 39.7733 104.507 40.352C104.675 40.9307 104.759 41.5 104.759 42.06V51.384C104.759 51.5707 104.703 51.72 104.591 51.832C104.479 51.944 104.329 52 104.143 52H103.667C103.48 52 103.331 51.944 103.219 51.832C103.107 51.72 103.051 51.5707 103.051 51.384V50.068C102.827 50.404 102.509 50.74 102.099 51.076C101.688 51.412 101.156 51.7013 100.503 51.944C99.8679 52.168 99.0652 52.28 98.0945 52.28ZM98.3745 50.656C99.2332 50.656 100.017 50.4693 100.727 50.096C101.436 49.7227 101.996 49.1533 102.407 48.388C102.836 47.604 103.051 46.624 103.051 45.448V44.496L99.4385 45C97.9079 45.2053 96.7505 45.56 95.9665 46.064C95.1825 46.568 94.7905 47.2027 94.7905 47.968C94.7905 48.584 94.9679 49.088 95.3225 49.48C95.6772 49.872 96.1252 50.1707 96.6665 50.376C97.2265 50.5627 97.7959 50.656 98.3745 50.656ZM109.774 52C109.588 52 109.429 51.9347 109.298 51.804C109.168 51.6733 109.102 51.5147 109.102 51.328V33.1C109.102 32.8947 109.168 32.7267 109.298 32.596C109.429 32.4653 109.588 32.4 109.774 32.4H117.026C119.285 32.4 121.068 32.9227 122.374 33.968C123.681 35.0133 124.334 36.5347 124.334 38.532C124.334 39.9133 123.989 41.0613 123.298 41.976C122.626 42.8907 121.721 43.5533 120.582 43.964L124.67 51.104C124.726 51.216 124.754 51.3187 124.754 51.412C124.754 51.58 124.689 51.72 124.558 51.832C124.446 51.944 124.316 52 124.166 52H121.618C121.301 52 121.058 51.916 120.89 51.748C120.722 51.58 120.592 51.412 120.498 51.244L116.886 44.608H112.994V51.328C112.994 51.5147 112.929 51.6733 112.798 51.804C112.686 51.9347 112.528 52 112.322 52H109.774ZM112.994 41.444H116.942C118.081 41.444 118.93 41.192 119.49 40.688C120.05 40.1653 120.33 39.4373 120.33 38.504C120.33 37.5707 120.05 36.8427 119.49 36.32C118.949 35.7787 118.1 35.508 116.942 35.508H112.994V41.444ZM133.882 52.28C132.389 52.28 131.129 52.0187 130.102 51.496C129.094 50.9733 128.319 50.236 127.778 49.284C127.255 48.332 126.957 47.2213 126.882 45.952C126.863 45.616 126.854 45.2053 126.854 44.72C126.854 44.2347 126.863 43.824 126.882 43.488C126.957 42.2 127.265 41.0893 127.806 40.156C128.366 39.204 129.15 38.4667 130.158 37.944C131.185 37.4213 132.426 37.16 133.882 37.16C135.338 37.16 136.57 37.4213 137.578 37.944C138.605 38.4667 139.389 39.204 139.93 40.156C140.49 41.0893 140.807 42.2 140.882 43.488C140.901 43.824 140.91 44.2347 140.91 44.72C140.91 45.2053 140.901 45.616 140.882 45.952C140.807 47.2213 140.499 48.332 139.958 49.284C139.435 50.236 138.661 50.9733 137.634 51.496C136.626 52.0187 135.375 52.28 133.882 52.28ZM133.882 49.508C134.871 49.508 135.637 49.2 136.178 48.584C136.719 47.9493 137.018 47.0253 137.074 45.812C137.093 45.532 137.102 45.168 137.102 44.72C137.102 44.272 137.093 43.908 137.074 43.628C137.018 42.4333 136.719 41.5187 136.178 40.884C135.637 40.2493 134.871 39.932 133.882 39.932C132.893 39.932 132.127 40.2493 131.586 40.884C131.045 41.5187 130.746 42.4333 130.69 43.628C130.671 43.908 130.662 44.272 130.662 44.72C130.662 45.168 130.671 45.532 130.69 45.812C130.746 47.0253 131.045 47.9493 131.586 48.584C132.127 49.2 132.893 49.508 133.882 49.508ZM146.07 57.32C145.921 57.32 145.79 57.264 145.678 57.152C145.566 57.04 145.51 56.9093 145.51 56.76C145.51 56.6853 145.51 56.6107 145.51 56.536C145.529 56.48 145.566 56.4053 145.622 56.312L147.806 51.132L142.43 38.448C142.355 38.2613 142.318 38.1307 142.318 38.056C142.337 37.888 142.402 37.748 142.514 37.636C142.626 37.5053 142.766 37.44 142.934 37.44H145.202C145.426 37.44 145.594 37.496 145.706 37.608C145.818 37.72 145.902 37.8413 145.958 37.972L149.682 47.128L153.518 37.972C153.574 37.8227 153.658 37.7013 153.77 37.608C153.882 37.496 154.05 37.44 154.274 37.44H156.514C156.663 37.44 156.794 37.496 156.906 37.608C157.037 37.72 157.102 37.8507 157.102 38C157.102 38.112 157.065 38.2613 156.99 38.448L149.066 56.788C148.991 56.9373 148.898 57.0587 148.786 57.152C148.674 57.264 148.506 57.32 148.282 57.32H146.07ZM163.17 52.28C162.199 52.28 161.322 52.0933 160.538 51.72C159.754 51.328 159.129 50.8147 158.662 50.18C158.214 49.5267 157.99 48.7987 157.99 47.996C157.99 46.6893 158.513 45.6533 159.558 44.888C160.622 44.104 162.022 43.5813 163.758 43.32L167.594 42.76V42.172C167.594 41.388 167.398 40.7813 167.006 40.352C166.614 39.9227 165.942 39.708 164.99 39.708C164.318 39.708 163.767 39.848 163.338 40.128C162.927 40.3893 162.619 40.744 162.414 41.192C162.265 41.4347 162.05 41.556 161.77 41.556H159.558C159.353 41.556 159.194 41.5 159.082 41.388C158.989 41.276 158.942 41.1267 158.942 40.94C158.961 40.6413 159.082 40.2773 159.306 39.848C159.53 39.4187 159.885 39.008 160.37 38.616C160.855 38.2053 161.481 37.86 162.246 37.58C163.011 37.3 163.935 37.16 165.018 37.16C166.194 37.16 167.183 37.3093 167.986 37.608C168.807 37.888 169.461 38.2707 169.946 38.756C170.431 39.2413 170.786 39.8107 171.01 40.464C171.234 41.1173 171.346 41.808 171.346 42.536V51.328C171.346 51.5147 171.281 51.6733 171.15 51.804C171.019 51.9347 170.861 52 170.674 52H168.406C168.201 52 168.033 51.9347 167.902 51.804C167.79 51.6733 167.734 51.5147 167.734 51.328V50.236C167.491 50.5907 167.165 50.9267 166.754 51.244C166.343 51.5427 165.839 51.7947 165.242 52C164.663 52.1867 163.973 52.28 163.17 52.28ZM164.122 49.62C164.775 49.62 165.363 49.48 165.886 49.2C166.427 48.92 166.847 48.4907 167.146 47.912C167.463 47.3147 167.622 46.568 167.622 45.672V45.084L164.822 45.532C163.721 45.7 162.899 45.9707 162.358 46.344C161.817 46.7173 161.546 47.1747 161.546 47.716C161.546 48.1267 161.667 48.4813 161.91 48.78C162.171 49.06 162.498 49.2747 162.89 49.424C163.282 49.5547 163.693 49.62 164.122 49.62ZM175.638 52C175.451 52 175.293 51.9347 175.162 51.804C175.031 51.6733 174.966 51.5147 174.966 51.328V32.792C174.966 32.6053 175.031 32.4467 175.162 32.316C175.293 32.1853 175.451 32.12 175.638 32.12H177.962C178.149 32.12 178.307 32.1853 178.438 32.316C178.569 32.4467 178.634 32.6053 178.634 32.792V51.328C178.634 51.5147 178.569 51.6733 178.438 51.804C178.307 51.9347 178.149 52 177.962 52H175.638Z" fill="#4B4D4F"/>
<path d="M213.102 0V82" stroke="#EFEFEF" stroke-linecap="square"/>
</g>
<defs>
<clipPath id="clip0_0_1142">
<rect width="215" height="82" fill="white"/>
</clipPath>
</defs>
</svg>
