<svg width="18" height="18" viewBox="0 0 18 18" fill="none" xmlns="http://www.w3.org/2000/svg">
<mask id="mask0_0_178" style="mask-type:alpha" maskUnits="userSpaceOnUse" x="0" y="0" width="18" height="18">
<path fill-rule="evenodd" clip-rule="evenodd" d="M0 0H18V18H0V0Z" fill="white"/>
</mask>
<g mask="url(#mask0_0_178)">
<path fill-rule="evenodd" clip-rule="evenodd" d="M9 16.5458C4.83926 16.5458 1.4542 13.1607 1.4542 9C1.4542 4.83926 4.83926 1.4542 9 1.4542C13.1607 1.4542 16.5458 4.83926 16.5458 9C16.5458 13.1607 13.1607 16.5458 9 16.5458ZM15.3639 2.63605C13.6641 0.936176 11.404 0 9 0C6.59602 0 4.33593 0.936211 2.63605 2.63605C0.936176 4.33589 0 6.59602 0 9C0 11.404 0.936176 13.6641 2.63605 15.3639C4.33589 17.0638 6.59602 18 9 18C11.404 18 13.6641 17.0638 15.3639 15.3639C17.0638 13.6641 18 11.404 18 9C18 6.59602 17.0638 4.33589 15.3639 2.63605Z" fill="#FF5E14"/>
</g>
<path fill-rule="evenodd" clip-rule="evenodd" d="M11.7836 10.7447L9.47783 8.4503V3.73528C9.47783 3.32921 9.14703 3 8.73891 3C8.33084 3 8 3.32921 8 3.73528V8.75487C8 8.94994 8.07785 9.13691 8.21644 9.27482L10.7386 11.7846C10.8828 11.9282 11.072 12 11.2611 12C11.4502 12 11.6393 11.9282 11.7836 11.7846C12.0721 11.4974 12.0721 11.0319 11.7836 10.7447Z" fill="#FF5E14"/>
</svg>
