<svg width="16" height="19" viewBox="0 0 16 19" fill="none" xmlns="http://www.w3.org/2000/svg">
<mask id="mask0_0_428" style="mask-type:alpha" maskUnits="userSpaceOnUse" x="0" y="0" width="16" height="19">
<path fill-rule="evenodd" clip-rule="evenodd" d="M16 0H0.0450764V19H16V0Z" fill="white"/>
</mask>
<g mask="url(#mask0_0_428)">
<path fill-rule="evenodd" clip-rule="evenodd" d="M0.0889683 2.97011C3.37749 2.97011 5.89653 2.04195 8.02253 0C10.154 2.04195 12.6731 2.97011 15.9561 2.97011C15.9561 8.28793 17.0744 15.9043 8.02253 19C-1.02937 15.9043 0.0889683 8.28793 0.0889683 2.97011Z" fill="#00C9A7"/>
</g>
<mask id="mask1_0_428" style="mask-type:alpha" maskUnits="userSpaceOnUse" x="0" y="0" width="8" height="19">
<path fill-rule="evenodd" clip-rule="evenodd" d="M7.99487 0H0.0449138V19H7.99487V0Z" fill="white"/>
</mask>
<g mask="url(#mask1_0_428)">
<path fill-rule="evenodd" clip-rule="evenodd" d="M0.088666 2.97011C3.36585 2.97011 5.8762 2.04195 7.99487 0V19C-1.02582 15.9043 0.088666 8.28793 0.088666 2.97011Z" fill="#02AD8C"/>
</g>
<path fill-rule="evenodd" clip-rule="evenodd" d="M10.1276 14L14 10.2364L11.8673 8.16364L10.1276 9.85455L5.13265 5L3 7.07273L10.1276 14Z" fill="#F1F1F2"/>
<path fill-rule="evenodd" clip-rule="evenodd" d="M8 12L3 6.966L4.95272 5L8 8.068V12Z" fill="#E6E6E6"/>
</svg>
